<?xml version="1.0" encoding="UTF-8" standalone="no"?>
<!-- Created with Inkscape (http://www.inkscape.org/) -->

<svg
   width="196.88008mm"
   height="88.983231mm"
   viewBox="0 0 196.88008 88.983231"
   version="1.1"
   id="svg13407"
   sodipodi:docname="dessin.svg"
   inkscape:version="1.1.2 (0a00cf5339, 2022-02-04)"
   xmlns:inkscape="http://www.inkscape.org/namespaces/inkscape"
   xmlns:sodipodi="http://sodipodi.sourceforge.net/DTD/sodipodi-0.dtd"
   xmlns="http://www.w3.org/2000/svg"
   xmlns:svg="http://www.w3.org/2000/svg">
  <sodipodi:namedview
     id="namedview13409"
     pagecolor="#ffffff"
     bordercolor="#666666"
     borderopacity="1.0"
     inkscape:pageshadow="2"
     inkscape:pageopacity="0.0"
     inkscape:pagecheckerboard="0"
     inkscape:document-units="mm"
     showgrid="false"
     inkscape:zoom="0.57370932"
     inkscape:cx="329.43512"
     inkscape:cy="-21.788037"
     inkscape:window-width="1713"
     inkscape:window-height="1400"
     inkscape:window-x="3642"
     inkscape:window-y="35"
     inkscape:window-maximized="1"
     inkscape:current-layer="layer1" />
  <defs
     id="defs13404" />
  <g
     inkscape:label="Calque 1"
     inkscape:groupmode="layer"
     id="layer1"
     transform="translate(-3.0195824,-32.986652)">
    <g
       id="g10681"
       transform="matrix(0.35277777,0,0,0.35277777,-10.092198,-288.6628)">
      <g
         id="g9728">
        <path
           d="m 215.574,1040.348 c 0,-4.508 -3.652,-8.16 -8.156,-8.16 -4.508,0 -8.164,3.652 -8.164,8.16 0,4.507 3.656,8.16 8.164,8.16 4.504,0 8.156,-3.653 8.156,-8.16 z"
           style="fill:#faf3e6;fill-opacity:1;fill-rule:nonzero;stroke:#c48000;stroke-width:0.44838;stroke-linecap:butt;stroke-linejoin:miter;stroke-miterlimit:10;stroke-dasharray:none;stroke-opacity:1"
           id="path9730" />
      </g>
      <path
         d="m 210.359,1044.781 c 0,-0.597 -0.421,-0.613 -0.738,-0.613 h -1.301 v -8.07 c 0,-0.317 -0.035,-0.774 -0.597,-0.774 -0.387,0 -0.508,0.227 -0.614,0.457 -0.547,1.246 -1.32,1.422 -1.601,1.457 -0.297,0.02 -0.684,0.09 -0.684,0.617 0,0.508 0.332,0.598 0.633,0.598 0.281,0 0.859,-0.07 1.512,-0.547 v 6.262 h -1.301 c -0.316,0 -0.773,0.016 -0.773,0.613 0,0.582 0.472,0.598 0.773,0.598 h 3.953 c 0.301,0 0.738,-0.016 0.738,-0.598 z"
         style="fill:#c48000;fill-opacity:1;fill-rule:nonzero;stroke:none"
         id="path9732" />
      <g
         id="g9734">
        <path
           d="m 387.867,1036.129 c 0,-4.508 -3.652,-8.16 -8.16,-8.16 -4.504,0 -8.16,3.652 -8.16,8.16 0,4.504 3.656,8.156 8.16,8.156 4.508,0 8.16,-3.652 8.16,-8.156 z"
           style="fill:#e7eee6;fill-opacity:1;fill-rule:nonzero;stroke:#0e5400;stroke-width:0.44838;stroke-linecap:butt;stroke-linejoin:miter;stroke-miterlimit:10;stroke-dasharray:none;stroke-opacity:1"
           id="path9736" />
      </g>
      <path
         d="m 383.129,1040.387 v -0.407 c 0,-0.371 0,-0.773 -0.652,-0.773 -0.618,0 -0.668,0.281 -0.668,0.738 h -3.289 c 0.914,-0.793 2.234,-1.828 2.867,-2.39 1.019,-0.914 1.742,-1.953 1.742,-3.254 0,-1.949 -1.637,-3.199 -3.641,-3.199 -1.933,0 -3.218,1.355 -3.218,2.761 0,0.684 0.511,0.879 0.828,0.879 0.386,0 0.824,-0.316 0.824,-0.828 0,-0.191 -0.086,-0.402 -0.192,-0.543 0.247,-0.633 0.895,-1.055 1.668,-1.055 1.231,0 2.411,0.668 2.411,1.985 0,1.074 -0.774,1.953 -1.793,2.777 l -3.465,2.957 c -0.176,0.141 -0.281,0.227 -0.281,0.508 0,0.598 0.457,0.617 0.757,0.617 h 5.364 c 0.613,0 0.738,-0.16 0.738,-0.773 z"
         style="fill:#0e5400;fill-opacity:1;fill-rule:nonzero;stroke:none"
         id="path9738" />
      <g
         id="g9958"
         transform="scale(0.885951,1)">
        <path
           d="m 468.035,999.559 c 24.034,24.824 124.95,-65.399 91.299,-50.231 -46.405,15.067 -80.982,18.289 -99.8,-28.234 -6.772,-16.754 -26.331,36.066 -44.92,74.586 -4.241,8.789 43.523,-2.387 53.421,3.879 z"
           style="fill:none;stroke:#083ccc;stroke-width:1.7369;stroke-linecap:butt;stroke-linejoin:miter;stroke-miterlimit:4;stroke-dasharray:none;stroke-opacity:1"
           id="path9960" />
      </g>
      <path
         d="m 94.473,982.008 c -0.649,-0.535 -0.711,-1.465 -0.137,-2.07 0.574,-0.61 1.562,-0.665 2.215,-0.129 0.648,0.535 0.711,1.461 0.137,2.07 -0.575,0.605 -1.563,0.664 -2.215,0.129"
         style="fill:#000000;fill-opacity:1;fill-rule:nonzero;stroke:none"
         id="path9962" />
      <path
         d="m 117.41,963.848 c -0.648,-0.536 -0.711,-1.465 -0.137,-2.071 0.571,-0.609 1.563,-0.664 2.215,-0.129 0.649,0.536 0.711,1.461 0.137,2.071 -0.574,0.605 -1.566,0.664 -2.215,0.129"
         style="fill:#c48000;fill-opacity:1;fill-rule:nonzero;stroke:none"
         id="path9964" />
      <g
         id="g9966"
         transform="scale(0.885951,1)">
        <path
           d="m 59.527,912.758 h 206.871 c 9.369,0 16.909,7.543 16.909,16.906 v 216.762 c 0,9.363 -7.54,16.906 -16.909,16.906 H 59.527 c -9.369,0 -16.909,-7.543 -16.909,-16.906 V 929.664 c 0,-9.363 7.54,-16.906 16.909,-16.906 z"
           style="fill:none;stroke:#000000;stroke-width:1.33237;stroke-linecap:round;stroke-linejoin:miter;stroke-miterlimit:30;stroke-dasharray:none;stroke-opacity:1"
           id="path9968" />
      </g>
      <g
         id="g9970"
         transform="scale(0.885951,1)">
        <path
           d="m 519.511,1072.688 c -3.721,20.257 -11.953,32.359 23.43,40.496 27.91,6.418 54.157,37.058 74.259,19.73 24.717,-21.301 21.326,-66.352 -5.375,-69.738 -31.785,-4.031 -20.392,-26.535 -45.268,-22.969 -24.705,3.543 -43.249,11.801 -47.046,32.481 z"
           style="fill:none;stroke:#000000;stroke-width:1.38323;stroke-linecap:butt;stroke-linejoin:miter;stroke-miterlimit:4;stroke-dasharray:none;stroke-opacity:1"
           id="path9972" />
      </g>
      <g
         id="g9974"
         transform="scale(0.885951,1)">
        <path
           d="m 537.117,1076.445 c -2.504,13.621 -8.038,21.754 15.754,27.227 18.765,4.316 36.414,24.918 49.928,13.269 45.599,-39.304 -56.749,-89.136 -65.682,-40.496 z"
           style="fill:none;stroke:#000000;stroke-width:1.57144;stroke-linecap:butt;stroke-linejoin:miter;stroke-miterlimit:4;stroke-dasharray:none;stroke-opacity:1"
           id="path9976" />
      </g>
      <g
         id="g9978"
         transform="scale(0.885951,1)">
        <path
           d="m 555.97,1081.039 c -3.827,20.836 23.571,24.211 30.542,18.145 25.026,-21.789 -25.718,-44.383 -30.542,-18.145 z"
           style="fill:none;stroke:#000000;stroke-width:1.64779;stroke-linecap:butt;stroke-linejoin:miter;stroke-miterlimit:4;stroke-dasharray:none;stroke-opacity:1"
           id="path9980" />
      </g>
      <g
         id="g9982"
         transform="scale(0.885951,1)">
        <path
           d="m 563.598,1057.562 c -1.195,-0.874 -1.309,-2.386 -0.251,-3.374 1.053,-0.989 2.879,-1.083 4.074,-0.211 1.195,0.875 1.309,2.386 0.255,3.375 -1.058,0.992 -2.879,1.086 -4.078,0.21"
           style="fill:#000000;fill-opacity:1;fill-rule:nonzero;stroke:#000000;stroke-width:1.25282;stroke-linecap:round;stroke-linejoin:miter;stroke-miterlimit:30;stroke-dasharray:none;stroke-opacity:1"
           id="path9984" />
      </g>
      <g
         id="g9986"
         transform="scale(1,0.938288)">
        <path
           d="m 143.184,1162.132 c -2.329,15.245 -8.25,53.526 13.882,59.65 17.461,4.829 47.891,-6.22 60.465,-19.259 52.715,-54.663 -59.695,-136.352 -74.347,-40.391 z"
           style="fill:none;stroke:#c48000;stroke-width:1.31681;stroke-linecap:butt;stroke-linejoin:miter;stroke-miterlimit:4;stroke-dasharray:none;stroke-opacity:1"
           id="path9988" />
      </g>
      <g
         id="g9990"
         transform="scale(1,0.938288)">
        <path
           d="m 158.164,1165.716 c -1.574,10.296 -6.762,39.284 8.18,43.418 11.789,3.264 32.34,-4.197 40.828,-13.002 36.762,-32.51 -38.387,-99.991 -49.008,-30.416 z"
           style="fill:none;stroke:#c48000;stroke-width:1.31681;stroke-linecap:butt;stroke-linejoin:miter;stroke-miterlimit:4;stroke-dasharray:none;stroke-opacity:1"
           id="path9992" />
      </g>
      <g
         id="g9994"
         transform="scale(1,0.938288)">
        <path
           d="m 171.672,1169.346 c -0.891,5.837 -3.777,24.505 4.699,26.849 6.684,1.848 18.336,-2.382 23.149,-7.373 20.183,-20.929 -22.239,-56.216 -27.848,-19.476 z"
           style="fill:none;stroke:#c48000;stroke-width:1.31681;stroke-linecap:butt;stroke-linejoin:miter;stroke-miterlimit:4;stroke-dasharray:none;stroke-opacity:1"
           id="path9996" />
      </g>
      <g
         id="g9998"
         transform="scale(1,0.938288)">
        <path
           d="m 416.973,1049.809 c 20.004,20.604 62,-25.249 33.152,-13.218 -20.535,6.399 -31.719,11.953 -34.043,-10.587 -1.898,-18.388 -12.277,0.196 -22.062,23.035 -2.516,5.874 13.312,-6.573 22.953,0.77 z m -1.934,9.438 c 23.953,22.244 83.227,-47.052 54.379,-35.016 -39.356,15.033 -37.469,23.23 -62.277,-24.38 -8.329,-15.99 -15.899,29.671 -31.938,56.653 -4.816,8.097 31.91,-7.835 39.836,2.743 z"
           style="fill:none;stroke:#0000ff;stroke-width:1.68698;stroke-linecap:butt;stroke-linejoin:miter;stroke-miterlimit:4;stroke-dasharray:none;stroke-opacity:1"
           id="path10000" />
      </g>
      <path
         d="m 315.879,925.535 -1.902,1.801 0.242,0.23 1.66,-1.347 1.613,1.347 0.242,-0.23 z"
         style="fill:#0000ff;fill-opacity:1;fill-rule:nonzero;stroke:none"
         id="path10002" />
      <path
         d="m 311.785,936.336 c -0.109,0.457 -0.152,0.539 -0.773,0.539 -0.153,0 -0.309,0 -0.309,0.25 0,0.102 0.067,0.164 0.176,0.164 0.379,0 0.797,-0.043 1.172,-0.043 0.488,0 0.949,0.043 1.414,0.043 0.066,0 0.246,0 0.246,-0.269 0,-0.145 -0.133,-0.145 -0.332,-0.145 -0.707,0 -0.707,-0.082 -0.707,-0.207 0,-0.168 0.594,-2.324 0.683,-2.656 0.176,0.394 0.575,0.851 1.305,0.851 1.633,0 3.402,-1.929 3.402,-3.875 0,-1.246 -0.816,-2.117 -1.878,-2.117 -0.707,0 -1.391,0.477 -1.856,0.996 -0.133,-0.726 -0.75,-0.996 -1.262,-0.996 -0.66,0 -0.925,0.52 -1.035,0.746 -0.265,0.457 -0.445,1.246 -0.445,1.285 0,0.145 0.133,0.145 0.156,0.145 0.156,0 0.156,-0.02 0.242,-0.309 0.246,-0.933 0.532,-1.578 1.039,-1.578 0.243,0 0.442,0.106 0.442,0.602 0,0.312 -0.043,0.457 -0.11,0.687 z m 2.477,-5.742 c 0.09,-0.356 0.484,-0.727 0.73,-0.934 0.508,-0.394 0.906,-0.5 1.149,-0.5 0.55,0 0.906,0.457 0.906,1.246 0,0.789 -0.465,2.301 -0.731,2.797 -0.484,0.934 -1.148,1.371 -1.679,1.371 -0.926,0 -1.106,-1.101 -1.106,-1.183 0,-0.02 0,-0.039 0.047,-0.207 z"
         style="fill:#0000ff;fill-opacity:1;fill-rule:nonzero;stroke:none"
         id="path10004" />
      <path
         d="m 327.359,933.973 c 0,-1.743 -1.347,-3.317 -4.195,-3.317 -2.875,0 -4.199,1.598 -4.199,3.317 0,1.742 1.371,3.234 4.199,3.234 2.848,0 4.195,-1.535 4.195,-3.234 z m -4.195,2.8 c -0.598,0 -1.527,-0.125 -2.168,-0.871 -0.484,-0.601 -0.551,-1.453 -0.551,-1.929 0,-0.727 0.133,-1.493 0.641,-2.094 0.484,-0.539 1.281,-0.809 2.078,-0.809 0.727,0 1.547,0.188 2.141,0.891 0.531,0.625 0.574,1.555 0.574,2.012 0,0.976 -0.266,2.8 -2.715,2.8 z M 325.172,933 h -0.617 v 0.332 h -2.762 V 933 h -0.641 v 1.844 h 0.641 v -0.313 h 2.762 v 0.313 h 0.617 z"
         style="fill:#0000ff;fill-opacity:1;fill-rule:nonzero;stroke:none"
         id="path10006" />
      <path
         d="m 330.043,930.531 c 0,-0.144 0,-0.351 -0.242,-0.351 -0.246,0 -0.246,0.207 -0.246,0.351 v 8.524 c 0,0.144 0,0.351 0.222,0.351 0.266,0 0.266,-0.207 0.266,-0.351 z"
         style="fill:#0000ff;fill-opacity:1;fill-rule:nonzero;stroke:none"
         id="path10008" />
      <path
         d="m 337.875,933.641 c 0,-0.02 -0.066,-0.102 -0.066,-0.125 0,0 0.199,-0.164 0.308,-0.27 l 1.656,-1.406 c 0.555,-0.457 0.641,-0.563 1.657,-0.563 0.199,0 0.246,-0.246 0.246,-0.308 0,-0.149 -0.133,-0.207 -0.223,-0.207 -0.242,0 -0.84,0.039 -1.082,0.039 -0.223,0 -0.488,0 -0.683,-0.02 -0.223,0 -0.465,-0.019 -0.665,-0.019 -0.066,0 -0.308,0 -0.308,0.308 0,0.207 0.199,0.207 0.285,0.207 0.133,0 0.266,0.024 0.422,0.063 l -1.945,1.66 -1.039,-1.68 c 0.199,-0.043 0.242,-0.043 0.507,-0.043 0.243,0 0.266,-0.246 0.266,-0.308 0,-0.149 -0.133,-0.207 -0.242,-0.207 -0.157,0 -0.531,0.019 -0.731,0.019 -0.218,0.02 -0.574,0.02 -0.816,0.02 -0.223,0 -0.465,-0.02 -0.664,-0.02 -0.242,0 -0.485,-0.019 -0.707,-0.019 -0.067,0 -0.309,0 -0.309,0.308 0,0.207 0.199,0.207 0.418,0.207 0.133,0 0.266,0 0.399,0 0.156,0.024 0.156,0.024 0.222,0.145 l 1.59,2.531 -2.695,2.301 c -0.199,0.164 -0.465,0.332 -1.262,0.332 -0.176,0 -0.394,0 -0.394,0.312 0,0.122 0.109,0.207 0.218,0.207 0.242,0 0.864,-0.043 1.106,-0.043 0.199,0 0.465,0 0.683,0.02 0.2,0 0.446,0.023 0.664,0.023 0.157,0 0.309,-0.062 0.309,-0.312 0,-0.02 0,-0.207 -0.242,-0.207 -0.199,0 -0.332,-0.02 -0.465,-0.063 l 2.387,-2.05 1.281,2.07 c -0.152,0.023 -0.375,0.043 -0.508,0.043 -0.066,0 -0.242,0.043 -0.242,0.312 0,0.082 0.066,0.207 0.223,0.207 0.242,0 0.507,-0.023 0.726,-0.023 0.223,-0.02 0.598,-0.02 0.82,-0.02 0.219,0 0.461,0.02 0.684,0.02 0.219,0 0.465,0.023 0.684,0.023 0.156,0 0.308,-0.062 0.308,-0.312 0,-0.207 -0.199,-0.207 -0.418,-0.207 -0.133,0 -0.265,0 -0.375,0 -0.175,-0.02 -0.175,-0.02 -0.242,-0.145 z"
         style="fill:#0000ff;fill-opacity:1;fill-rule:nonzero;stroke:none"
         id="path10010" />
      <path
         d="m 347.973,937.891 c 0,-0.043 0,-0.063 -0.243,-0.289 -1.746,-1.661 -2.21,-4.168 -2.21,-6.2 0,-2.3 0.531,-4.605 2.277,-6.242 0.176,-0.164 0.176,-0.187 0.176,-0.226 0,-0.106 -0.043,-0.145 -0.133,-0.145 -0.152,0 -1.414,0.91 -2.254,2.59 -0.707,1.453 -0.883,2.922 -0.883,4.023 0,1.036 0.156,2.633 0.93,4.145 0.859,1.617 2.055,2.488 2.207,2.488 0.09,0 0.133,-0.043 0.133,-0.144 z"
         style="fill:#0000ff;fill-opacity:1;fill-rule:nonzero;stroke:none"
         id="path10012" />
      <path
         d="m 356.5,928.23 c 0,-2.324 -1.457,-2.8 -2.32,-2.8 -1.125,0 -2.52,0.683 -3.578,2.488 -0.731,1.242 -1.172,3.047 -1.172,4.105 0,1.926 1.082,2.797 2.343,2.797 0.95,0 2.188,-0.515 3.161,-1.863 1.191,-1.617 1.566,-3.734 1.566,-4.727 z m -4.926,1.575 c 0.199,-0.766 0.574,-1.969 0.992,-2.653 0.332,-0.539 0.907,-1.246 1.571,-1.246 0.597,0 0.863,0.582 0.863,1.367 0,0.832 -0.312,1.993 -0.465,2.532 z m 2.785,0.644 c -0.886,3.543 -2.058,3.895 -2.543,3.895 -0.199,0 -0.507,-0.039 -0.707,-0.453 -0.156,-0.356 -0.156,-0.871 -0.156,-0.895 0,-0.746 0.313,-1.988 0.465,-2.547 z"
         style="fill:#0000ff;fill-opacity:1;fill-rule:nonzero;stroke:none"
         id="path10014" />
      <path
         d="m 359.387,925.266 c 0,-0.231 0,-0.477 -0.266,-0.477 -0.285,0 -0.285,0.246 -0.285,0.477 v 12.293 c 0,0.226 0,0.476 0.285,0.476 0.266,0 0.266,-0.25 0.266,-0.476 z"
         style="fill:#0000ff;fill-opacity:1;fill-rule:nonzero;stroke:none"
         id="path10016" />
      <path
         d="m 369.199,929.723 c 0.067,-0.231 0.067,-0.25 0.067,-0.293 0,-0.289 -0.219,-0.578 -0.664,-0.578 -0.727,0 -0.907,0.621 -0.993,0.972 l -0.375,1.371 c -0.156,0.641 -0.422,1.657 -0.574,2.196 -0.09,0.289 -0.508,0.621 -0.555,0.644 -0.152,0.082 -0.507,0.309 -0.972,0.309 -0.817,0 -0.84,-0.664 -0.84,-0.953 0,-0.809 0.441,-1.844 0.84,-2.797 0.133,-0.356 0.179,-0.438 0.179,-0.664 0,-0.77 -0.82,-1.184 -1.593,-1.184 -1.5,0 -2.207,1.785 -2.207,2.055 0,0.187 0.218,0.187 0.351,0.187 0.157,0 0.266,0 0.309,-0.168 0.465,-1.472 1.262,-1.597 1.461,-1.597 0.109,0 0.242,0 0.242,0.269 0,0.313 -0.156,0.645 -0.242,0.852 -0.555,1.328 -0.84,2.094 -0.84,2.758 0,1.511 1.414,1.718 2.23,1.718 0.356,0 0.84,-0.039 1.372,-0.39 -0.399,1.617 -1.461,2.484 -2.43,2.484 -0.199,0 -0.578,-0.019 -0.863,-0.184 0.441,-0.168 0.664,-0.539 0.664,-0.894 0,-0.477 -0.399,-0.598 -0.688,-0.598 -0.508,0 -1.016,0.414 -1.016,0.992 0,0.684 0.75,1.165 1.903,1.165 1.609,0 3.469,-1.02 3.91,-2.657 z"
         style="fill:#0000ff;fill-opacity:1;fill-rule:nonzero;stroke:none"
         id="path10018" />
      <path
         d="m 373.973,931.402 c 0,-1.015 -0.157,-2.613 -0.93,-4.129 -0.84,-1.617 -2.055,-2.484 -2.188,-2.484 -0.085,0 -0.152,0.059 -0.152,0.145 0,0.039 0,0.062 0.266,0.308 1.39,1.309 2.187,3.403 2.187,6.16 0,2.278 -0.508,4.602 -2.254,6.262 -0.199,0.164 -0.199,0.184 -0.199,0.227 0,0.082 0.067,0.144 0.152,0.144 0.133,0 1.415,-0.91 2.235,-2.59 0.726,-1.453 0.883,-2.925 0.883,-4.043 z"
         style="fill:#0000ff;fill-opacity:1;fill-rule:nonzero;stroke:none"
         id="path10020" />
      <path
         d="m 467.574,1141.695 -1.914,1.817 0.246,0.23 1.668,-1.359 1.625,1.359 0.246,-0.23 z"
         style="fill:#000000;fill-opacity:1;fill-rule:nonzero;stroke:none"
         id="path10022" />
      <path
         d="m 463.453,1152.574 c -0.109,0.461 -0.156,0.543 -0.777,0.543 -0.156,0 -0.313,0 -0.313,0.254 0,0.102 0.067,0.164 0.176,0.164 0.379,0 0.805,-0.039 1.18,-0.039 0.492,0 0.957,0.039 1.426,0.039 0.066,0 0.246,0 0.246,-0.269 0,-0.149 -0.133,-0.149 -0.336,-0.149 -0.711,0 -0.711,-0.082 -0.711,-0.207 0,-0.168 0.601,-2.34 0.691,-2.672 0.176,0.395 0.578,0.856 1.313,0.856 1.644,0 3.425,-1.942 3.425,-3.906 0,-1.254 -0.82,-2.129 -1.89,-2.129 -0.711,0 -1.403,0.48 -1.871,1 -0.133,-0.731 -0.754,-1 -1.266,-1 -0.668,0 -0.937,0.519 -1.047,0.75 -0.269,0.461 -0.445,1.253 -0.445,1.296 0,0.145 0.133,0.145 0.156,0.145 0.156,0 0.156,-0.02 0.242,-0.312 0.246,-0.942 0.536,-1.59 1.047,-1.59 0.246,0 0.446,0.105 0.446,0.609 0,0.313 -0.043,0.457 -0.11,0.688 z m 2.492,-5.785 c 0.09,-0.355 0.493,-0.73 0.735,-0.937 0.511,-0.399 0.914,-0.504 1.16,-0.504 0.555,0 0.91,0.461 0.91,1.254 0,0.793 -0.465,2.32 -0.734,2.82 -0.489,0.941 -1.157,1.379 -1.692,1.379 -0.933,0 -1.113,-1.106 -1.113,-1.192 0,-0.019 0,-0.043 0.047,-0.207 z"
         style="fill:#000000;fill-opacity:1;fill-rule:nonzero;stroke:none"
         id="path10024" />
      <path
         d="m 479.141,1150.195 c 0,-1.754 -1.356,-3.34 -4.227,-3.34 -2.894,0 -4.23,1.606 -4.23,3.34 0,1.754 1.378,3.258 4.23,3.258 2.871,0 4.227,-1.543 4.227,-3.258 z m -4.227,2.821 c -0.602,0 -1.539,-0.125 -2.184,-0.879 -0.488,-0.606 -0.554,-1.461 -0.554,-1.942 0,-0.73 0.133,-1.504 0.644,-2.109 0.489,-0.543 1.293,-0.813 2.094,-0.813 0.734,0 1.559,0.188 2.156,0.899 0.535,0.625 0.582,1.566 0.582,2.023 0,0.985 -0.269,2.821 -2.738,2.821 z m 2.024,-3.801 h -0.622 v 0.336 h -2.785 v -0.336 h -0.644 v 1.859 h 0.644 v -0.312 h 2.785 v 0.312 h 0.622 z"
         style="fill:#000000;fill-opacity:1;fill-rule:nonzero;stroke:none"
         id="path10026" />
      <path
         d="m 481.844,1146.73 c 0,-0.148 0,-0.355 -0.246,-0.355 -0.246,0 -0.246,0.207 -0.246,0.355 v 8.582 c 0,0.149 0,0.356 0.222,0.356 0.27,0 0.27,-0.207 0.27,-0.356 z"
         style="fill:#000000;fill-opacity:1;fill-rule:nonzero;stroke:none"
         id="path10028" />
      <path
         d="m 491.422,1147.836 c 0.312,-0.293 0.668,-0.356 1.113,-0.356 0.18,0 0.203,0 0.27,-0.062 0.09,-0.082 0.109,-0.25 0.109,-0.25 0,-0.125 -0.109,-0.207 -0.223,-0.207 -0.289,0 -0.644,0.039 -0.957,0.039 -0.265,0 -0.933,-0.039 -1.199,-0.039 -0.269,0 -0.312,0.187 -0.312,0.312 0,0.207 0.222,0.207 0.289,0.207 0.023,0 0.199,0 0.355,0.043 l -2.781,2.504 -1.449,-2.523 c 0.269,-0.024 0.511,-0.024 0.582,-0.024 0.133,-0.019 0.219,-0.168 0.219,-0.312 0,-0.082 -0.067,-0.207 -0.243,-0.207 -0.246,0 -0.535,0.019 -0.8,0.019 -0.247,0 -0.536,0.02 -0.782,0.02 -0.199,0 -0.554,0 -0.734,-0.02 -0.223,0 -0.465,-0.019 -0.688,-0.019 -0.07,0 -0.293,0 -0.293,0.312 0,0.207 0.204,0.207 0.426,0.207 0.133,0 0.242,0 0.379,0 0.133,0.024 0.156,0.024 0.223,0.149 l 1.824,3.172 -0.535,2.008 c -0.246,0.019 -0.488,0.019 -0.735,0.019 -0.246,0 -0.265,0 -0.312,0.043 -0.109,0.082 -0.109,0.227 -0.109,0.27 0,0.062 0.066,0.211 0.242,0.211 0.222,0 0.492,-0.024 0.738,-0.024 0.242,0 0.488,-0.019 0.734,-0.019 0.2,0 0.555,0.019 0.754,0.019 0.246,0 0.535,0.024 0.758,0.024 0.067,0 0.332,0 0.332,-0.317 0,-0.207 -0.199,-0.207 -0.422,-0.207 -0.222,0 -0.379,0 -0.601,-0.019 l 0.558,-2.008 z"
         style="fill:#000000;fill-opacity:1;fill-rule:nonzero;stroke:none"
         id="path10030" />
      <path
         d="m 499.047,1154.141 c 0,-0.039 0,-0.063 -0.242,-0.289 -1.762,-1.672 -2.227,-4.2 -2.227,-6.247 0,-2.32 0.535,-4.636 2.293,-6.285 0.176,-0.168 0.176,-0.191 0.176,-0.23 0,-0.106 -0.043,-0.149 -0.133,-0.149 -0.156,0 -1.426,0.922 -2.269,2.614 -0.711,1.461 -0.891,2.945 -0.891,4.05 0,1.043 0.156,2.653 0.934,4.176 0.871,1.629 2.07,2.508 2.226,2.508 0.09,0 0.133,-0.043 0.133,-0.148 z"
         style="fill:#000000;fill-opacity:1;fill-rule:nonzero;stroke:none"
         id="path10032" />
      <path
         d="m 507.641,1144.41 c 0,-2.34 -1.469,-2.82 -2.34,-2.82 -1.133,0 -2.535,0.691 -3.606,2.508 -0.734,1.25 -1.179,3.07 -1.179,4.132 0,1.946 1.093,2.821 2.359,2.821 0.957,0 2.203,-0.524 3.184,-1.879 1.203,-1.629 1.582,-3.758 1.582,-4.762 z m -4.965,1.586 c 0.199,-0.773 0.578,-1.984 1.004,-2.672 0.332,-0.543 0.91,-1.254 1.578,-1.254 0.601,0 0.867,0.586 0.867,1.379 0,0.836 -0.309,2.004 -0.465,2.547 z m 2.804,0.649 c -0.89,3.57 -2.07,3.925 -2.558,3.925 -0.203,0 -0.512,-0.043 -0.715,-0.461 -0.152,-0.351 -0.152,-0.875 -0.152,-0.894 0,-0.754 0.308,-2.008 0.465,-2.57 z"
         style="fill:#000000;fill-opacity:1;fill-rule:nonzero;stroke:none"
         id="path10034" />
      <path
         d="m 510.547,1141.422 c 0,-0.227 0,-0.481 -0.27,-0.481 -0.289,0 -0.289,0.254 -0.289,0.481 v 12.387 c 0,0.23 0,0.48 0.289,0.48 0.27,0 0.27,-0.25 0.27,-0.48 z"
         style="fill:#000000;fill-opacity:1;fill-rule:nonzero;stroke:none"
         id="path10036" />
      <path
         d="m 520.43,1145.914 c 0.066,-0.23 0.066,-0.25 0.066,-0.293 0,-0.293 -0.223,-0.586 -0.668,-0.586 -0.734,0 -0.91,0.629 -1,0.985 l -0.379,1.375 c -0.156,0.648 -0.422,1.671 -0.578,2.214 -0.09,0.293 -0.512,0.629 -0.559,0.649 -0.152,0.082 -0.511,0.312 -0.976,0.312 -0.824,0 -0.848,-0.668 -0.848,-0.961 0,-0.812 0.446,-1.859 0.848,-2.82 0.133,-0.355 0.176,-0.437 0.176,-0.668 0,-0.773 -0.821,-1.187 -1.602,-1.187 -1.512,0 -2.226,1.793 -2.226,2.066 0,0.188 0.222,0.188 0.355,0.188 0.156,0 0.27,0 0.313,-0.168 0.468,-1.481 1.269,-1.606 1.468,-1.606 0.114,0 0.246,0 0.246,0.27 0,0.312 -0.156,0.648 -0.246,0.855 -0.554,1.336 -0.843,2.109 -0.843,2.777 0,1.528 1.421,1.735 2.246,1.735 0.355,0 0.847,-0.043 1.382,-0.399 -0.402,1.633 -1.472,2.508 -2.449,2.508 -0.203,0 -0.578,-0.019 -0.867,-0.187 0.441,-0.168 0.664,-0.543 0.664,-0.899 0,-0.48 -0.398,-0.605 -0.687,-0.605 -0.512,0 -1.024,0.418 -1.024,1.004 0,0.687 0.754,1.168 1.914,1.168 1.625,0 3.492,-1.024 3.938,-2.672 z"
         style="fill:#000000;fill-opacity:1;fill-rule:nonzero;stroke:none"
         id="path10038" />
      <path
         d="m 525.238,1147.605 c 0,-1.023 -0.156,-2.632 -0.933,-4.156 -0.848,-1.629 -2.071,-2.508 -2.203,-2.508 -0.09,0 -0.157,0.063 -0.157,0.149 0,0.039 0,0.062 0.266,0.312 1.402,1.317 2.203,3.426 2.203,6.203 0,2.297 -0.512,4.637 -2.269,6.309 -0.2,0.164 -0.2,0.188 -0.2,0.227 0,0.086 0.067,0.148 0.157,0.148 0.132,0 1.421,-0.918 2.246,-2.613 0.734,-1.461 0.89,-2.942 0.89,-4.071 z"
         style="fill:#000000;fill-opacity:1;fill-rule:nonzero;stroke:none"
         id="path10040" />
      <g
         id="g10042"
         transform="scale(1,0.960728)">
        <path
           d="m 86.992,1030.452 c -6.015,-4.932 -6.586,-13.462 -1.273,-19.053 5.308,-5.591 14.492,-6.123 20.508,-1.187 6.019,4.932 6.593,13.462 1.285,19.053 -5.309,5.59 -14.492,6.127 -20.512,1.195"
           style="fill:none;stroke:#000000;stroke-width:0.900163;stroke-linecap:round;stroke-linejoin:miter;stroke-miterlimit:30;stroke-dasharray:1.80033, 1.80033;stroke-dashoffset:0;stroke-opacity:0.613209"
           id="path10044" />
      </g>
      <g
         id="g10046"
         transform="scale(1,0.960728)">
        <path
           d="m 79.996,1037.823 c -10.398,-8.526 -11.383,-23.265 -2.207,-32.925 9.18,-9.657 25.047,-10.576 35.445,-2.054 10.399,8.527 11.391,23.266 2.215,32.926 -9.176,9.661 -25.043,10.588 -35.441,2.066"
           style="fill:none;stroke:#000000;stroke-width:0.900163;stroke-linecap:round;stroke-linejoin:miter;stroke-miterlimit:30;stroke-dasharray:1.80033, 1.80033;stroke-dashoffset:0;stroke-opacity:0.613209"
           id="path10048" />
      </g>
      <g
         id="g10050"
         transform="scale(1,0.960728)">
        <path
           d="m 72.695,1045.532 c -14.968,-12.279 -16.39,-33.503 -3.175,-47.412 13.218,-13.906 36.066,-15.231 51.039,-2.956 14.972,12.275 16.402,33.499 3.191,47.413 -13.211,13.913 -36.059,15.243 -51.035,2.972"
           style="fill:none;stroke:#000000;stroke-width:0.900163;stroke-linecap:round;stroke-linejoin:miter;stroke-miterlimit:30;stroke-dasharray:1.80033, 1.80033;stroke-dashoffset:0;stroke-opacity:0.613209"
           id="path10052" />
      </g>
      <path
         d="m 52.57,931.844 c 0.278,0.711 0.598,1.746 1.242,3.429 0.942,2.352 1.356,3.192 2.227,4.508 0.207,0.278 0.231,0.301 0.367,0.301 0.207,0 0.508,-0.172 0.668,-0.281 0.207,-0.172 0.231,-0.196 0.391,-0.863 0.875,-3.622 1.976,-7.395 2.273,-8.02 0.024,-0.023 0.324,-0.539 2.117,-0.582 0.297,0 0.575,-0.734 0.575,-1.035 0,-0.215 -0.094,-0.215 -0.301,-0.215 -1.469,0 -2.113,0.559 -2.297,0.754 -0.414,0.496 -0.758,1.488 -1.426,3.793 -0.527,1.746 -0.988,3.539 -1.445,5.328 -0.805,-1.145 -1.266,-2.242 -1.977,-4.012 -0.757,-1.961 -1.242,-3.387 -1.632,-4.613 -0.09,-0.281 -0.09,-0.301 -0.231,-0.301 -0.023,0 -0.32,0 -0.758,0.344 -0.136,0.109 -0.16,0.238 -0.16,0.387 -0.414,3.668 -1.793,7.289 -2.183,7.937 -0.137,0.215 -0.297,0.449 -0.598,0.449 -0.137,0 -0.711,-0.062 -1.102,-0.386 -0.07,-0.063 -0.093,-0.063 -0.117,-0.063 -0.23,0 -0.551,0.688 -0.551,1.012 0,0.43 0.899,0.711 1.309,0.711 0.945,0 1.703,-1.942 1.934,-2.567 0.941,-2.5 1.398,-4.547 1.675,-6.015 z"
         style="fill:#000000;fill-opacity:1;fill-rule:nonzero;stroke:none"
         id="path10054" />
      <path
         d="m 67.121,943.035 c 0,-0.043 0,-0.066 -0.254,-0.301 -1.816,-1.726 -2.297,-4.336 -2.297,-6.449 0,-2.39 0.551,-4.785 2.368,-6.488 0.183,-0.172 0.183,-0.195 0.183,-0.238 0,-0.106 -0.047,-0.149 -0.141,-0.149 -0.16,0 -1.468,0.945 -2.343,2.692 -0.735,1.511 -0.918,3.043 -0.918,4.183 0,1.078 0.16,2.738 0.965,4.313 0.898,1.683 2.136,2.59 2.296,2.59 0.094,0 0.141,-0.043 0.141,-0.153 z"
         style="fill:#000000;fill-opacity:1;fill-rule:nonzero;stroke:none"
         id="path10056" />
      <path
         d="m 75.828,934.215 c -0.527,0.152 -0.781,0.605 -0.781,0.949 0,0.305 0.23,0.648 0.711,0.648 0.531,0 1.058,-0.41 1.058,-1.078 0,-0.734 -0.757,-1.207 -1.656,-1.207 -0.848,0 -1.379,0.582 -1.586,0.84 -0.367,-0.582 -1.172,-0.84 -2.019,-0.84 -1.84,0 -2.828,1.68 -2.828,2.133 0,0.195 0.207,0.195 0.343,0.195 0.184,0 0.278,0 0.348,-0.171 0.414,-1.25 1.469,-1.661 2.066,-1.661 0.551,0 0.828,0.235 0.828,0.668 0,0.282 -0.207,1.036 -0.343,1.532 l -0.508,1.875 c -0.207,0.84 -0.734,1.25 -1.238,1.25 -0.071,0 -0.414,0 -0.692,-0.196 0.528,-0.148 0.781,-0.625 0.781,-0.945 0,-0.305 -0.253,-0.648 -0.734,-0.648 -0.508,0 -1.058,0.41 -1.058,1.078 0,0.734 0.781,1.207 1.679,1.207 0.824,0 1.379,-0.582 1.563,-0.84 0.367,0.582 1.195,0.84 2.019,0.84 1.864,0 2.852,-1.68 2.852,-2.133 0,-0.195 -0.231,-0.195 -0.344,-0.195 -0.184,0 -0.277,0 -0.348,0.172 -0.414,1.25 -1.468,1.66 -2.089,1.66 -0.551,0 -0.805,-0.239 -0.805,-0.692 0,-0.277 0.183,-1.011 0.32,-1.527 0.094,-0.348 0.438,-1.641 0.508,-1.856 0.23,-0.839 0.734,-1.25 1.242,-1.25 0.09,0 0.41,0 0.711,0.192 z"
         style="fill:#000000;fill-opacity:1;fill-rule:nonzero;stroke:none"
         id="path10058" />
      <path
         d="m 79.945,929.902 c 0,-0.234 0,-0.492 -0.273,-0.492 -0.301,0 -0.301,0.258 -0.301,0.492 v 12.789 c 0,0.235 0,0.497 0.301,0.497 0.273,0 0.273,-0.262 0.273,-0.497 z"
         style="fill:#000000;fill-opacity:1;fill-rule:nonzero;stroke:none"
         id="path10060" />
      <path
         d="m 90.152,934.539 c 0.067,-0.238 0.067,-0.258 0.067,-0.301 0,-0.3 -0.227,-0.605 -0.688,-0.605 -0.758,0 -0.941,0.648 -1.035,1.015 l -0.391,1.422 c -0.16,0.668 -0.437,1.727 -0.597,2.285 -0.09,0.301 -0.528,0.649 -0.574,0.668 -0.161,0.086 -0.528,0.325 -1.012,0.325 -0.848,0 -0.871,-0.692 -0.871,-0.993 0,-0.839 0.457,-1.917 0.871,-2.91 0.14,-0.367 0.183,-0.453 0.183,-0.691 0,-0.797 -0.847,-1.227 -1.652,-1.227 -1.562,0 -2.297,1.852 -2.297,2.133 0,0.195 0.227,0.195 0.367,0.195 0.161,0 0.274,0 0.321,-0.171 0.484,-1.532 1.308,-1.661 1.515,-1.661 0.118,0 0.254,0 0.254,0.278 0,0.324 -0.16,0.672 -0.254,0.887 -0.574,1.378 -0.871,2.175 -0.871,2.867 0,1.574 1.469,1.789 2.321,1.789 0.367,0 0.871,-0.043 1.425,-0.41 -0.414,1.683 -1.519,2.589 -2.527,2.589 -0.207,0 -0.598,-0.023 -0.898,-0.195 0.461,-0.172 0.691,-0.562 0.691,-0.926 0,-0.496 -0.414,-0.629 -0.715,-0.629 -0.527,0 -1.055,0.434 -1.055,1.036 0,0.714 0.782,1.211 1.977,1.211 1.676,0 3.605,-1.059 4.066,-2.762 z"
         style="fill:#000000;fill-opacity:1;fill-rule:nonzero;stroke:none"
         id="path10062" />
      <path
         d="m 107.098,976.164 c 0.066,-0.238 0.066,-0.258 0.066,-0.301 0,-0.304 -0.23,-0.605 -0.687,-0.605 -0.758,0 -0.942,0.648 -1.036,1.012 l -0.39,1.425 c -0.16,0.668 -0.438,1.723 -0.598,2.285 -0.09,0.301 -0.527,0.645 -0.574,0.668 -0.16,0.086 -0.527,0.325 -1.012,0.325 -0.847,0 -0.871,-0.692 -0.871,-0.993 0,-0.839 0.457,-1.918 0.871,-2.91 0.141,-0.367 0.184,-0.453 0.184,-0.691 0,-0.797 -0.848,-1.231 -1.653,-1.231 -1.562,0 -2.3,1.856 -2.3,2.137 0,0.195 0.23,0.195 0.371,0.195 0.16,0 0.273,0 0.32,-0.175 0.481,-1.528 1.309,-1.66 1.516,-1.66 0.117,0 0.254,0 0.254,0.281 0,0.324 -0.161,0.668 -0.254,0.883 -0.575,1.382 -0.871,2.179 -0.871,2.871 0,1.574 1.468,1.789 2.32,1.789 0.367,0 0.871,-0.043 1.426,-0.41 -0.414,1.679 -1.52,2.586 -2.532,2.586 -0.207,0 -0.597,-0.02 -0.894,-0.192 0.461,-0.176 0.687,-0.562 0.687,-0.93 0,-0.496 -0.41,-0.625 -0.711,-0.625 -0.527,0 -1.054,0.434 -1.054,1.036 0,0.711 0.781,1.207 1.972,1.207 1.68,0 3.61,-1.055 4.071,-2.758 z"
         style="fill:#000000;fill-opacity:1;fill-rule:nonzero;stroke:none"
         id="path10064" />
      <path
         d="m 93.875,939.715 c 0,-0.906 -0.367,-1.445 -0.941,-1.445 -0.485,0 -0.782,0.343 -0.782,0.734 0,0.367 0.297,0.73 0.782,0.73 0.16,0 0.367,-0.062 0.504,-0.172 0.046,-0.042 0.07,-0.042 0.07,-0.042 0.019,0 0.019,0 0.019,0.195 0,1.035 -0.504,1.855 -0.984,2.308 -0.164,0.149 -0.164,0.172 -0.164,0.215 0,0.106 0.07,0.149 0.141,0.149 0.16,0 1.355,-1.055 1.355,-2.672 z"
         style="fill:#000000;fill-opacity:1;fill-rule:nonzero;stroke:none"
         id="path10066" />
      <path
         d="m 104.988,934.605 c 0.203,0 0.735,0 0.735,-0.476 0,-0.32 -0.325,-0.32 -0.575,-0.32 h -3.355 c -2.207,0 -3.84,2.261 -3.84,3.902 0,1.207 0.875,2.176 2.207,2.176 1.723,0 3.676,-1.66 3.676,-3.774 0,-0.238 0,-0.906 -0.457,-1.508 z m -4.804,4.981 c -0.735,0 -1.309,-0.496 -1.309,-1.488 0,-0.41 0.16,-1.532 0.687,-2.352 0.622,-0.949 1.497,-1.141 2,-1.141 1.219,0 1.333,0.907 1.333,1.336 0,0.649 -0.297,1.77 -0.782,2.481 -0.574,0.797 -1.379,1.164 -1.929,1.164 z"
         style="fill:#000000;fill-opacity:1;fill-rule:nonzero;stroke:none"
         id="path10068" />
      <path
         d="m 112.754,931.242 c 0.07,-0.238 0.09,-0.262 0.367,-0.281 0.231,-0.023 0.414,-0.023 0.645,-0.023 h 0.296 c 0.325,0 0.325,0 0.391,-0.063 0.094,-0.043 0.141,-0.238 0.141,-0.324 0,-0.172 -0.141,-0.258 -0.324,-0.258 -0.368,0 -0.735,0.043 -1.102,0.043 -0.391,0 -0.781,0 -1.172,0 -0.414,0 -0.828,0 -1.219,0 -0.39,0 -0.781,-0.043 -1.148,-0.043 -0.16,0 -0.438,0 -0.438,0.41 0,0.235 0.254,0.235 0.508,0.235 h 0.297 c 0.137,0 0.484,0.023 0.781,0.042 l -2.089,7.829 c -0.071,0.214 -0.071,0.238 -0.348,0.257 -0.184,0.024 -0.434,0.024 -0.641,0.024 h -0.301 c -0.296,0 -0.55,0 -0.55,0.41 0,0.172 0.16,0.234 0.32,0.234 0.371,0 0.762,-0.019 1.129,-0.019 0.391,0 0.781,-0.024 1.172,-0.024 0.414,0 0.828,0.024 1.219,0.024 0.39,0 0.781,0.019 1.148,0.019 0.137,0 0.434,0 0.434,-0.406 0,-0.238 -0.25,-0.238 -0.504,-0.238 h -0.297 c -0.117,0 -0.598,-0.024 -0.781,-0.024 z"
         style="fill:#000000;fill-opacity:1;fill-rule:nonzero;stroke:none"
         id="path10070" />
      <path
         d="m 119.152,936.285 c 0,-1.055 -0.16,-2.715 -0.964,-4.289 -0.872,-1.684 -2.137,-2.586 -2.274,-2.586 -0.094,0 -0.16,0.063 -0.16,0.149 0,0.043 0,0.066 0.273,0.324 1.45,1.359 2.278,3.535 2.278,6.402 0,2.371 -0.532,4.789 -2.344,6.512 -0.207,0.172 -0.207,0.195 -0.207,0.238 0,0.086 0.066,0.153 0.16,0.153 0.137,0 1.469,-0.95 2.32,-2.696 0.758,-1.512 0.918,-3.043 0.918,-4.207 z"
         style="fill:#000000;fill-opacity:1;fill-rule:nonzero;stroke:none"
         id="path10072" />
      <path
         d="m 102.383,1134.566 c 0,-0.074 -0.055,-0.152 -0.164,-0.152 -0.188,0 -0.891,0.633 -1.16,1.117 -0.379,-0.886 -1.055,-1.14 -1.625,-1.14 -2.028,0 -4.137,2.382 -4.137,4.742 0,1.574 1,2.586 2.273,2.586 0.731,0 1.407,-0.379 2.028,-0.961 -0.164,0.554 -0.731,2.738 -0.786,2.89 -0.132,0.457 -0.269,0.508 -1.242,0.532 -0.218,0 -0.379,0 -0.379,0.332 0,0 0,0.176 0.215,0.176 0.543,0 1.164,-0.051 1.731,-0.051 0.57,0 1.191,0.051 1.785,0.051 0.082,0 0.297,0 0.297,-0.329 0,-0.179 -0.16,-0.179 -0.461,-0.179 -0.809,0 -0.809,-0.102 -0.809,-0.254 0,-0.125 0.028,-0.227 0.055,-0.356 z m -4.758,6.797 c -1.055,0 -1.109,-1.242 -1.109,-1.519 0,-0.785 0.484,-2.539 0.785,-3.223 0.539,-1.191 1.429,-1.875 2.133,-1.875 1.136,0 1.378,1.316 1.378,1.418 0,0.102 -0.945,3.652 -1,3.703 -0.269,0.457 -1.242,1.496 -2.187,1.496 z"
         style="fill:#c48000;fill-opacity:1;fill-rule:nonzero;stroke:none"
         id="path10074" />
      <path
         d="m 110.133,1140.227 c 0,-0.028 -0.082,-0.129 -0.082,-0.153 0,0 0.242,-0.203 0.379,-0.332 l 2.027,-1.722 c 0.676,-0.559 0.785,-0.688 2.027,-0.688 0.243,0 0.297,-0.305 0.297,-0.379 0,-0.176 -0.16,-0.254 -0.269,-0.254 -0.297,0 -1.028,0.051 -1.324,0.051 -0.27,0 -0.594,0 -0.84,-0.023 -0.27,0 -0.567,-0.028 -0.809,-0.028 -0.082,0 -0.379,0 -0.379,0.379 0,0.254 0.242,0.254 0.352,0.254 0.16,0 0.324,0.027 0.511,0.078 l -2.378,2.028 -1.27,-2.055 c 0.242,-0.051 0.297,-0.051 0.621,-0.051 0.297,0 0.324,-0.305 0.324,-0.379 0,-0.176 -0.16,-0.254 -0.297,-0.254 -0.187,0 -0.648,0.028 -0.89,0.028 -0.274,0.023 -0.703,0.023 -1.004,0.023 -0.27,0 -0.567,-0.023 -0.809,-0.023 -0.297,0 -0.593,-0.028 -0.867,-0.028 -0.078,0 -0.375,0 -0.375,0.379 0,0.254 0.242,0.254 0.512,0.254 0.164,0 0.324,0 0.488,0 0.188,0.027 0.188,0.027 0.27,0.18 l 1.945,3.093 -3.297,2.817 c -0.246,0.203 -0.57,0.406 -1.543,0.406 -0.215,0 -0.484,0 -0.484,0.379 0,0.152 0.133,0.254 0.269,0.254 0.297,0 1.055,-0.051 1.352,-0.051 0.242,0 0.566,0 0.836,0.028 0.246,0 0.543,0.023 0.812,0.023 0.192,0 0.379,-0.074 0.379,-0.379 0,-0.027 0,-0.254 -0.297,-0.254 -0.242,0 -0.406,-0.027 -0.566,-0.078 l 2.918,-2.512 1.566,2.539 c -0.187,0.024 -0.457,0.051 -0.621,0.051 -0.082,0 -0.297,0.051 -0.297,0.379 0,0.102 0.082,0.254 0.27,0.254 0.297,0 0.621,-0.023 0.894,-0.023 0.27,-0.028 0.731,-0.028 1,-0.028 0.27,0 0.567,0.028 0.836,0.028 0.274,0 0.571,0.023 0.84,0.023 0.188,0 0.379,-0.074 0.379,-0.379 0,-0.254 -0.246,-0.254 -0.516,-0.254 -0.16,0 -0.324,0 -0.457,0 -0.218,-0.027 -0.218,-0.027 -0.3,-0.18 z"
         style="fill:#c48000;fill-opacity:1;fill-rule:nonzero;stroke:none"
         id="path10076" />
      <path
         d="m 118.273,1136.422 c 0,-0.18 0,-0.434 -0.296,-0.434 -0.297,0 -0.297,0.254 -0.297,0.434 v 10.426 c 0,0.175 0,0.429 0.269,0.429 0.324,0 0.324,-0.254 0.324,-0.429 z"
         style="fill:#c48000;fill-opacity:1;fill-rule:nonzero;stroke:none"
         id="path10078" />
      <path
         d="m 129.91,1137.766 c 0.379,-0.356 0.809,-0.434 1.352,-0.434 0.215,0 0.242,0 0.324,-0.074 0.105,-0.102 0.133,-0.305 0.133,-0.305 0,-0.152 -0.133,-0.254 -0.27,-0.254 -0.351,0 -0.781,0.051 -1.16,0.051 -0.324,0 -1.137,-0.051 -1.461,-0.051 -0.324,0 -0.379,0.231 -0.379,0.379 0,0.254 0.27,0.254 0.352,0.254 0.027,0 0.242,0 0.433,0.051 l -3.379,3.047 -1.757,-3.071 c 0.324,-0.027 0.621,-0.027 0.703,-0.027 0.16,-0.023 0.269,-0.203 0.269,-0.379 0,-0.101 -0.082,-0.254 -0.297,-0.254 -0.296,0 -0.648,0.028 -0.972,0.028 -0.301,0 -0.653,0.023 -0.949,0.023 -0.243,0 -0.676,0 -0.891,-0.023 -0.27,0 -0.566,-0.028 -0.84,-0.028 -0.078,0 -0.351,0 -0.351,0.379 0,0.254 0.246,0.254 0.515,0.254 0.16,0 0.297,0 0.461,0 0.16,0.027 0.188,0.027 0.27,0.18 l 2.214,3.855 -0.648,2.434 c -0.297,0.027 -0.594,0.027 -0.891,0.027 -0.296,0 -0.324,0 -0.379,0.051 -0.136,0.101 -0.136,0.277 -0.136,0.328 0,0.078 0.082,0.254 0.297,0.254 0.273,0 0.597,-0.023 0.894,-0.023 0.297,0 0.594,-0.028 0.891,-0.028 0.246,0 0.676,0.028 0.922,0.028 0.297,0 0.648,0.023 0.918,0.023 0.082,0 0.406,0 0.406,-0.379 0,-0.254 -0.246,-0.254 -0.516,-0.254 -0.269,0 -0.457,0 -0.73,-0.027 l 0.676,-2.434 z"
         style="fill:#c48000;fill-opacity:1;fill-rule:nonzero;stroke:none"
         id="path10080" />
      <path
         d="m 202.871,1055.902 -0.269,-0.23 c 0,0 -0.649,0.762 -1.407,0.762 -0.406,0 -0.84,-0.227 -1.136,-0.407 -0.461,-0.254 -0.758,-0.355 -1.055,-0.355 -0.649,0 -1,0.355 -1.863,1.269 l 0.269,0.231 c 0,0 0.649,-0.762 1.406,-0.762 0.407,0 0.836,0.227 1.133,0.379 0.461,0.281 0.785,0.383 1.082,0.383 0.649,0 0.973,-0.356 1.84,-1.27 z"
         style="fill:#f1656a;fill-opacity:1;fill-rule:nonzero;stroke:none"
         id="path10082" />
      <path
         d="m 203.582,1060.211 c -0.621,0.18 -0.918,0.711 -0.918,1.117 0,0.356 0.27,0.762 0.836,0.762 0.621,0 1.246,-0.485 1.246,-1.27 0,-0.863 -0.894,-1.422 -1.949,-1.422 -1,0 -1.621,0.688 -1.863,0.993 -0.434,-0.688 -1.379,-0.993 -2.379,-0.993 -2.164,0 -3.328,1.981 -3.328,2.512 0,0.231 0.246,0.231 0.406,0.231 0.219,0 0.324,0 0.406,-0.203 0.488,-1.473 1.731,-1.954 2.434,-1.954 0.648,0 0.972,0.278 0.972,0.786 0,0.328 -0.242,1.218 -0.406,1.8 l -0.594,2.207 c -0.242,0.989 -0.863,1.473 -1.461,1.473 -0.078,0 -0.484,0 -0.808,-0.23 0.621,-0.176 0.918,-0.735 0.918,-1.114 0,-0.355 -0.297,-0.761 -0.864,-0.761 -0.597,0 -1.246,0.48 -1.246,1.265 0,0.863 0.918,1.422 1.973,1.422 0.977,0 1.625,-0.684 1.84,-0.988 0.433,0.683 1.406,0.988 2.379,0.988 2.191,0 3.351,-1.977 3.351,-2.512 0,-0.226 -0.269,-0.226 -0.406,-0.226 -0.215,0 -0.324,0 -0.402,0.203 -0.489,1.469 -1.731,1.953 -2.461,1.953 -0.649,0 -0.946,-0.281 -0.946,-0.812 0,-0.329 0.215,-1.192 0.376,-1.801 0.109,-0.407 0.515,-1.93 0.597,-2.184 0.27,-0.988 0.863,-1.469 1.457,-1.469 0.11,0 0.488,0 0.84,0.227 z"
         style="fill:#f1656a;fill-opacity:1;fill-rule:nonzero;stroke:none"
         id="path10084" />
      <path
         d="m 132.367,952.648 c -0.465,0.161 -0.691,0.645 -0.691,1.012 0,0.32 0.207,0.688 0.633,0.688 0.468,0 0.933,-0.434 0.933,-1.149 0,-0.777 -0.668,-1.285 -1.465,-1.285 -0.75,0 -1.218,0.621 -1.402,0.895 -0.324,-0.618 -1.035,-0.895 -1.789,-0.895 -1.625,0 -2.5,1.793 -2.5,2.274 0,0.207 0.18,0.207 0.305,0.207 0.16,0 0.242,0 0.304,-0.184 0.367,-1.332 1.301,-1.77 1.828,-1.77 0.489,0 0.735,0.254 0.735,0.715 0,0.297 -0.184,1.102 -0.305,1.629 l -0.449,1.996 c -0.184,0.895 -0.649,1.332 -1.098,1.332 -0.062,0 -0.367,0 -0.609,-0.207 0.469,-0.16 0.691,-0.664 0.691,-1.008 0,-0.324 -0.222,-0.691 -0.652,-0.691 -0.445,0 -0.934,0.438 -0.934,1.148 0,0.782 0.692,1.286 1.485,1.286 0.73,0 1.218,-0.621 1.383,-0.895 0.324,0.621 1.058,0.895 1.789,0.895 1.648,0 2.523,-1.789 2.523,-2.274 0,-0.207 -0.203,-0.207 -0.305,-0.207 -0.164,0 -0.246,0 -0.304,0.184 -0.368,1.332 -1.305,1.769 -1.852,1.769 -0.488,0 -0.715,-0.254 -0.715,-0.734 0,-0.297 0.164,-1.078 0.285,-1.629 0.082,-0.367 0.387,-1.746 0.45,-1.977 0.203,-0.894 0.652,-1.332 1.097,-1.332 0.082,0 0.367,0 0.629,0.207 z"
         style="fill:#c48000;fill-opacity:1;fill-rule:nonzero;stroke:none"
         id="path10086" />
      <path
         d="m 138.637,957.461 c 0,-1.125 -0.121,-1.949 -0.528,-2.664 -0.285,-0.457 -0.855,-0.871 -1.566,-0.871 -2.113,0 -2.113,2.801 -2.113,3.535 0,0.734 0,3.469 2.113,3.469 2.094,0 2.094,-2.735 2.094,-3.469 z m -2.094,3.168 c -0.426,0 -0.977,-0.274 -1.16,-1.102 -0.121,-0.597 -0.121,-1.445 -0.121,-2.203 0,-0.758 0,-1.539 0.121,-2.09 0.203,-0.804 0.773,-1.031 1.16,-1.031 0.488,0 0.957,0.344 1.117,0.942 0.145,0.55 0.164,1.285 0.164,2.179 0,0.758 0,1.516 -0.121,2.156 -0.183,0.942 -0.793,1.149 -1.16,1.149 z"
         style="fill:#c48000;fill-opacity:1;fill-rule:nonzero;stroke:none"
         id="path10088" />
      <path
         d="m 188.793,1059.641 c -1.199,-0.993 -1.313,-2.703 -0.254,-3.829 1.059,-1.121 2.891,-1.226 4.094,-0.238 1.199,0.992 1.312,2.703 0.254,3.828 -1.059,1.121 -2.891,1.227 -4.094,0.239"
         style="fill:#f1656a;fill-opacity:1;fill-rule:nonzero;stroke:none"
         id="path10090" />
      <path
         d="m 510.18,1047.043 c 0,-2.02 -1.27,-2.434 -2.02,-2.434 -0.98,0 -2.191,0.594 -3.113,2.164 -0.637,1.082 -1.02,2.653 -1.02,3.571 0,1.679 0.942,2.433 2.035,2.433 0.829,0 1.907,-0.449 2.75,-1.621 1.04,-1.406 1.368,-3.246 1.368,-4.113 z m -4.289,1.371 c 0.171,-0.668 0.5,-1.715 0.867,-2.309 0.285,-0.468 0.785,-1.082 1.363,-1.082 0.52,0 0.75,0.504 0.75,1.192 0,0.719 -0.269,1.73 -0.402,2.199 z m 2.421,0.559 c -0.769,3.086 -1.785,3.39 -2.21,3.39 -0.172,0 -0.442,-0.035 -0.614,-0.394 -0.136,-0.309 -0.136,-0.758 -0.136,-0.778 0,-0.648 0.269,-1.73 0.406,-2.218 z"
         style="fill:#000000;fill-opacity:1;fill-rule:nonzero;stroke:none"
         id="path10092" />
      <path
         d="m 515.246,1045.238 c 0.152,-0.074 0.152,-0.109 0.152,-0.144 0,-0.074 -0.078,-0.11 -0.113,-0.11 -0.039,0 -1.461,0.254 -1.691,0.305 l -0.215,-1.477 c -0.016,-0.124 -0.016,-0.218 -0.133,-0.218 -0.078,0 -0.117,0.074 -0.133,0.199 l -0.195,1.496 -1.574,-0.285 c -0.098,-0.02 -0.117,-0.02 -0.117,-0.02 -0.055,0 -0.133,0.036 -0.133,0.11 0,0.035 0.019,0.054 0.058,0.09 0.02,0.015 1.383,0.613 1.575,0.683 l -0.789,1.336 c -0.055,0.109 -0.055,0.125 -0.055,0.125 0,0.074 0.055,0.129 0.113,0.129 0.078,0 0.25,-0.199 0.578,-0.562 0.231,-0.215 0.461,-0.43 0.672,-0.649 0.422,0.399 1.039,1.027 1.133,1.117 0.078,0.075 0.078,0.094 0.137,0.094 0.058,0 0.113,-0.055 0.113,-0.129 0,-0.016 -0.113,-0.199 -0.172,-0.305 l -0.672,-1.136 z"
         style="fill:#000000;fill-opacity:1;fill-rule:nonzero;stroke:none"
         id="path10094" />
      <path
         d="m 290.828,1144.328 -1.824,1.731 0.234,0.218 1.59,-1.293 1.547,1.293 0.23,-0.218 z"
         style="fill:#0000ff;fill-opacity:1;fill-rule:nonzero;stroke:none"
         id="path10096" />
      <g
         id="g10098"
         transform="scale(1,0.938288)">
        <path
           d="m 294.309,1151.295 c -2.586,16.936 -9.661,42.618 14.933,49.421 19.399,5.366 53.207,-6.911 67.18,-21.399 17.18,-17.81 29.035,-54.8 10.473,-57.635 -22.094,-3.372 -42.594,-29.629 -59.887,-26.648 -17.172,2.964 -30.059,38.967 -32.699,56.261 z"
           style="fill:none;stroke:#007806;stroke-width:1.34305;stroke-linecap:butt;stroke-linejoin:miter;stroke-miterlimit:4;stroke-dasharray:2.6861, 1.34305;stroke-dashoffset:0;stroke-opacity:1"
           id="path10100" />
      </g>
      <g
         id="g10102"
         transform="scale(1,0.938288)">
        <path
           d="m 309.469,1153.293 c -1.746,11.437 -6.524,28.776 10.082,33.372 13.097,3.626 35.929,-4.667 45.363,-14.446 11.602,-12.031 19.606,-37.006 7.074,-38.921 -14.918,-2.278 -28.761,-20.009 -40.441,-17.994 -11.594,2.003 -20.297,26.312 -22.078,37.989 z"
           style="fill:none;stroke:#007806;stroke-width:1.34305;stroke-linecap:butt;stroke-linejoin:miter;stroke-miterlimit:4;stroke-dasharray:2.6861, 1.34305;stroke-dashoffset:0;stroke-opacity:1"
           id="path10104" />
      </g>
      <g
         id="g10106"
         transform="scale(1,0.938288)">
        <path
           d="m 324.973,1153.364 c -0.989,6.486 -3.7,16.316 5.718,18.922 7.426,2.056 20.371,-2.644 25.723,-8.193 22.426,-23.252 -25.207,-51.553 -31.441,-10.729 z"
           style="fill:none;stroke:#007806;stroke-width:1.34305;stroke-linecap:butt;stroke-linejoin:miter;stroke-miterlimit:4;stroke-dasharray:2.6861, 1.34305;stroke-dashoffset:0;stroke-opacity:1"
           id="path10108" />
      </g>
      <g
         id="g10110"
         transform="scale(0.885951,1)">
        <path
           d="m 425.902,1069.438 c -0.803,-0.586 -0.878,-1.602 -0.168,-2.266 0.71,-0.668 1.936,-0.731 2.738,-0.145 0.803,0.59 0.878,1.606 0.168,2.27 -0.706,0.664 -1.931,0.726 -2.734,0.141"
           style="fill:#000000;fill-opacity:1;fill-rule:nonzero;stroke:#000000;stroke-width:0.841541;stroke-linecap:round;stroke-linejoin:miter;stroke-miterlimit:30;stroke-dasharray:none;stroke-opacity:1"
           id="path10112" />
      </g>
      <path
         d="m 372.805,1054.469 c 0,-2.039 -1.282,-2.457 -2.035,-2.457 -0.989,0 -2.211,0.601 -3.141,2.183 -0.641,1.09 -1.027,2.672 -1.027,3.602 0,1.691 0.949,2.453 2.054,2.453 0.832,0 1.918,-0.453 2.774,-1.637 1.043,-1.418 1.375,-3.273 1.375,-4.144 z m -4.325,1.383 c 0.176,-0.676 0.504,-1.731 0.875,-2.329 0.29,-0.472 0.793,-1.093 1.375,-1.093 0.524,0 0.754,0.511 0.754,1.203 0,0.726 -0.269,1.746 -0.406,2.219 z m 2.446,0.562 c -0.778,3.109 -1.805,3.418 -2.231,3.418 -0.175,0 -0.445,-0.035 -0.621,-0.398 -0.136,-0.309 -0.136,-0.766 -0.136,-0.782 0,-0.656 0.273,-1.746 0.41,-2.238 z"
         style="fill:#000000;fill-opacity:1;fill-rule:nonzero;stroke:none"
         id="path10114" />
      <path
         d="m 377.836,1059.316 c 0,-0.89 -0.117,-1.546 -0.504,-2.109 -0.273,-0.363 -0.812,-0.691 -1.492,-0.691 -2.016,0 -2.016,2.218 -2.016,2.8 0,0.582 0,2.746 2.016,2.746 1.996,0 1.996,-2.164 1.996,-2.746 z m -1.996,2.512 c -0.406,0 -0.93,-0.219 -1.106,-0.875 -0.117,-0.473 -0.117,-1.144 -0.117,-1.746 0,-0.602 0,-1.219 0.117,-1.656 0.196,-0.633 0.739,-0.817 1.106,-0.817 0.465,0 0.91,0.274 1.066,0.746 0.137,0.438 0.153,1.02 0.153,1.727 0,0.602 0,1.199 -0.114,1.711 -0.175,0.746 -0.757,0.91 -1.105,0.91 z"
         style="fill:#000000;fill-opacity:1;fill-rule:nonzero;stroke:none"
         id="path10116" />
      <path
         d="m 273.465,1148.125 c 0.305,0 0.898,0 1.316,0.234 0.594,0.356 0.633,0.969 0.633,1.039 0.016,0.161 0.016,0.305 0.227,0.305 0.211,0 0.211,-0.16 0.211,-0.359 v -3.102 c 0,-0.18 0,-0.359 -0.211,-0.359 -0.211,0 -0.227,0.16 -0.227,0.25 -0.078,1.488 -1.32,1.562 -1.949,1.578 v -2.418 c 0,-0.773 0.226,-0.773 0.535,-0.773 h 0.57 c 1.645,0 2.465,0.789 2.543,1.578 0.02,0.09 0.02,0.269 0.211,0.269 0.211,0 0.211,-0.179 0.211,-0.375 v -1.488 c 0,-0.359 -0.019,-0.379 -0.402,-0.379 h -6.231 c -0.23,0 -0.422,0 -0.422,0.199 0,0.196 0.231,0.196 0.325,0.196 0.711,0 0.746,0.089 0.746,0.664 v 5.722 c 0,0.535 -0.035,0.66 -0.688,0.66 -0.172,0 -0.383,0 -0.383,0.2 0,0.195 0.192,0.195 0.422,0.195 h 6.461 c 0.227,0 0.344,0 0.379,-0.16 0.02,-0.02 0.363,-1.918 0.363,-1.973 0,-0.125 -0.113,-0.215 -0.207,-0.215 -0.171,0 -0.23,0.16 -0.23,0.16 -0.059,0.305 -0.191,0.789 -1.07,1.274 -0.649,0.359 -1.262,0.519 -1.93,0.519 H 274 c -0.309,0 -0.535,0 -0.535,-0.769 z m 3.648,-3.605 v 0.558 c -0.211,-0.219 -0.437,-0.394 -0.687,-0.558 z m -2.371,3.355 c 0.192,-0.074 0.461,-0.254 0.672,-0.484 v 0.949 c -0.289,-0.305 -0.672,-0.449 -0.672,-0.449 z m -2.769,-2.727 c 0,-0.125 0,-0.414 -0.098,-0.628 h 1.301 c -0.133,0.269 -0.133,0.644 -0.133,0.753 v 5.543 c 0,0.411 0.074,0.645 0.133,0.75 h -1.301 c 0.098,-0.214 0.098,-0.5 0.098,-0.625 z m 4.547,6.418 v -0.015 c 0.382,-0.18 0.707,-0.43 0.957,-0.629 0,0.035 -0.094,0.555 -0.114,0.644 z"
         style="fill:#000000;fill-opacity:1;fill-rule:nonzero;stroke:none"
         id="path10118" />
      <path
         d="m 282.773,1150.379 c 0,-0.039 0.02,-0.074 0.02,-0.109 0,-0.055 -0.039,-0.125 -0.117,-0.125 -0.074,0 -0.438,0.269 -0.61,0.539 -0.078,-0.164 -0.363,-0.539 -0.918,-0.539 -1.089,0 -2.199,1.128 -2.199,2.277 0,0.789 0.555,1.328 1.301,1.328 0.477,0 0.879,-0.289 1.07,-0.434 -0.019,0.02 -0.289,1.024 -0.304,1.168 -0.137,0.45 -0.137,0.45 -0.672,0.45 -0.094,0 -0.211,0 -0.211,0.179 0,0.051 0.039,0.125 0.117,0.125 0.285,0 0.609,-0.039 0.898,-0.039 0.286,0 0.649,0.039 0.918,0.039 0.075,0 0.153,-0.039 0.153,-0.179 0,-0.125 -0.117,-0.125 -0.211,-0.125 -0.192,0 -0.422,0 -0.422,-0.09 0,-0.02 0,-0.035 0.039,-0.18 z m -1.281,2.293 c -0.058,0.125 -0.058,0.144 -0.152,0.269 -0.344,0.375 -0.746,0.594 -1.07,0.594 -0.325,0 -0.633,-0.219 -0.633,-0.773 0,-0.43 0.25,-1.309 0.461,-1.633 0.382,-0.645 0.82,-0.75 1.05,-0.75 0.59,0 0.766,0.609 0.766,0.699 0,0.035 -0.019,0.09 -0.019,0.106 z"
         style="fill:#c48000;fill-opacity:1;fill-rule:nonzero;stroke:none"
         id="path10120" />
      <path
         d="m 286.93,1154.832 v -0.465 h -1.184 v -10.527 h 1.184 v -0.469 h -1.68 v 11.461 z"
         style="fill:#000000;fill-opacity:1;fill-rule:nonzero;stroke:none"
         id="path10122" />
      <path
         d="m 287.754,1153.359 c -0.094,0.395 -0.133,0.469 -0.668,0.469 -0.133,0 -0.27,0 -0.27,0.215 0,0.09 0.059,0.145 0.157,0.145 0.324,0 0.687,-0.04 1.011,-0.04 0.418,0 0.821,0.04 1.223,0.04 0.059,0 0.211,0 0.211,-0.235 0,-0.125 -0.117,-0.125 -0.289,-0.125 -0.609,0 -0.609,-0.074 -0.609,-0.18 0,-0.144 0.515,-2.007 0.589,-2.296 0.157,0.339 0.5,0.734 1.129,0.734 1.414,0 2.946,-1.664 2.946,-3.352 0,-1.074 -0.707,-1.828 -1.625,-1.828 -0.614,0 -1.204,0.41 -1.606,0.86 -0.117,-0.629 -0.652,-0.86 -1.09,-0.86 -0.574,0 -0.804,0.449 -0.898,0.645 -0.231,0.394 -0.383,1.074 -0.383,1.113 0,0.125 0.113,0.125 0.133,0.125 0.137,0 0.137,-0.019 0.211,-0.269 0.211,-0.809 0.461,-1.364 0.898,-1.364 0.211,0 0.383,0.09 0.383,0.52 0,0.269 -0.039,0.394 -0.098,0.594 z m 2.141,-4.964 c 0.078,-0.305 0.421,-0.629 0.632,-0.809 0.438,-0.34 0.782,-0.43 0.993,-0.43 0.476,0 0.785,0.395 0.785,1.074 0,0.684 -0.403,1.993 -0.633,2.422 -0.422,0.809 -0.992,1.184 -1.453,1.184 -0.801,0 -0.953,-0.949 -0.953,-1.02 0,-0.019 0,-0.039 0.035,-0.179 z"
         style="fill:#0000ff;fill-opacity:1;fill-rule:nonzero;stroke:none"
         id="path10124" />
      <path
         d="m 301.227,1151.316 c 0,-1.504 -1.168,-2.867 -3.633,-2.867 -2.485,0 -3.633,1.379 -3.633,2.867 0,1.508 1.187,2.801 3.633,2.801 2.465,0 3.633,-1.328 3.633,-2.801 z m -3.633,2.422 c -0.516,0 -1.321,-0.105 -1.875,-0.754 -0.418,-0.519 -0.477,-1.254 -0.477,-1.668 0,-0.625 0.117,-1.289 0.555,-1.808 0.422,-0.469 1.109,-0.699 1.797,-0.699 0.629,0 1.336,0.16 1.855,0.769 0.457,0.539 0.496,1.344 0.496,1.738 0,0.844 -0.23,2.422 -2.351,2.422 z m 1.738,-3.261 h -0.535 v 0.285 h -2.387 v -0.285 h -0.555 v 1.593 h 0.555 v -0.269 h 2.387 v 0.269 h 0.535 z"
         style="fill:#0000ff;fill-opacity:1;fill-rule:nonzero;stroke:none"
         id="path10126" />
      <path
         d="m 303.543,1148.34 c 0,-0.125 0,-0.305 -0.207,-0.305 -0.211,0 -0.211,0.18 -0.211,0.305 v 7.371 c 0,0.125 0,0.305 0.191,0.305 0.227,0 0.227,-0.18 0.227,-0.305 z"
         style="fill:#0000ff;fill-opacity:1;fill-rule:nonzero;stroke:none"
         id="path10128" />
      <path
         d="m 310.316,1151.031 c 0,-0.019 -0.054,-0.09 -0.054,-0.109 0,0 0.172,-0.141 0.265,-0.231 l 1.434,-1.218 c 0.477,-0.395 0.555,-0.485 1.434,-0.485 0.171,0 0.21,-0.215 0.21,-0.269 0,-0.125 -0.113,-0.18 -0.191,-0.18 -0.211,0 -0.726,0.035 -0.937,0.035 -0.192,0 -0.418,0 -0.59,-0.019 -0.192,0 -0.403,-0.016 -0.575,-0.016 -0.058,0 -0.269,0 -0.269,0.27 0,0.179 0.172,0.179 0.25,0.179 0.113,0 0.23,0.016 0.363,0.051 l -1.683,1.438 -0.899,-1.454 c 0.172,-0.035 0.211,-0.035 0.442,-0.035 0.211,0 0.23,-0.215 0.23,-0.269 0,-0.125 -0.117,-0.18 -0.211,-0.18 -0.133,0 -0.461,0.016 -0.633,0.016 -0.191,0.019 -0.496,0.019 -0.707,0.019 -0.191,0 -0.398,-0.019 -0.57,-0.019 -0.211,0 -0.422,-0.016 -0.613,-0.016 -0.059,0 -0.27,0 -0.27,0.27 0,0.179 0.172,0.179 0.363,0.179 0.118,0 0.231,0 0.344,0 0.137,0.016 0.137,0.016 0.192,0.125 l 1.379,2.188 -2.332,1.988 c -0.172,0.145 -0.403,0.289 -1.09,0.289 -0.153,0 -0.344,0 -0.344,0.27 0,0.105 0.094,0.179 0.191,0.179 0.211,0 0.746,-0.039 0.953,-0.039 0.172,0 0.403,0 0.594,0.02 0.172,0 0.383,0.019 0.574,0.019 0.133,0 0.266,-0.054 0.266,-0.269 0,-0.02 0,-0.18 -0.207,-0.18 -0.176,0 -0.289,-0.019 -0.402,-0.055 l 2.062,-1.773 1.11,1.793 c -0.133,0.016 -0.325,0.035 -0.442,0.035 -0.055,0 -0.207,0.035 -0.207,0.27 0,0.07 0.055,0.179 0.192,0.179 0.207,0 0.437,-0.019 0.628,-0.019 0.192,-0.02 0.516,-0.02 0.707,-0.02 0.192,0 0.403,0.02 0.594,0.02 0.192,0 0.399,0.019 0.59,0.019 0.137,0 0.27,-0.054 0.27,-0.269 0,-0.18 -0.172,-0.18 -0.364,-0.18 -0.113,0 -0.23,0 -0.324,0 -0.152,-0.019 -0.152,-0.019 -0.211,-0.125 z"
         style="fill:#0000ff;fill-opacity:1;fill-rule:nonzero;stroke:none"
         id="path10130" />
      <path
         d="m 319.055,1154.707 c 0,-0.035 0,-0.055 -0.211,-0.254 -1.512,-1.433 -1.91,-3.601 -1.91,-5.359 0,-1.992 0.457,-3.981 1.964,-5.399 0.157,-0.144 0.157,-0.16 0.157,-0.195 0,-0.09 -0.039,-0.129 -0.117,-0.129 -0.133,0 -1.223,0.789 -1.95,2.242 -0.609,1.258 -0.765,2.532 -0.765,3.481 0,0.894 0.136,2.277 0.804,3.586 0.746,1.398 1.778,2.152 1.911,2.152 0.078,0 0.117,-0.035 0.117,-0.125 z"
         style="fill:#0000ff;fill-opacity:1;fill-rule:nonzero;stroke:none"
         id="path10132" />
      <path
         d="m 326.43,1146.348 c 0,-2.008 -1.262,-2.418 -2.008,-2.418 -0.973,0 -2.18,0.59 -3.098,2.152 -0.629,1.074 -1.012,2.633 -1.012,3.551 0,1.668 0.938,2.418 2.028,2.418 0.82,0 1.89,-0.446 2.73,-1.613 1.035,-1.399 1.36,-3.227 1.36,-4.09 z m -4.262,1.363 c 0.172,-0.66 0.496,-1.703 0.859,-2.293 0.285,-0.469 0.785,-1.078 1.356,-1.078 0.515,0 0.746,0.504 0.746,1.183 0,0.719 -0.266,1.723 -0.402,2.188 z m 2.406,0.559 c -0.762,3.066 -1.777,3.371 -2.195,3.371 -0.172,0 -0.441,-0.036 -0.613,-0.395 -0.133,-0.305 -0.133,-0.754 -0.133,-0.773 0,-0.645 0.265,-1.719 0.402,-2.203 z"
         style="fill:#000000;fill-opacity:1;fill-rule:nonzero;stroke:none"
         id="path10134" />
      <path
         d="m 328.926,1143.785 c 0,-0.195 0,-0.414 -0.231,-0.414 -0.246,0 -0.246,0.219 -0.246,0.414 v 10.633 c 0,0.199 0,0.414 0.246,0.414 0.231,0 0.231,-0.215 0.231,-0.414 z"
         style="fill:#000000;fill-opacity:1;fill-rule:nonzero;stroke:none"
         id="path10136" />
      <path
         d="m 336.414,1144.324 -0.191,-0.16 c 0,0 -0.461,0.539 -0.996,0.539 -0.286,0 -0.59,-0.164 -0.801,-0.289 -0.324,-0.18 -0.535,-0.25 -0.746,-0.25 -0.457,0 -0.707,0.25 -1.321,0.895 l 0.192,0.164 c 0,0 0.461,-0.539 0.996,-0.539 0.285,0 0.59,0.16 0.801,0.269 0.324,0.195 0.554,0.27 0.765,0.27 0.457,0 0.688,-0.254 1.301,-0.899 z"
         style="fill:#f1656a;fill-opacity:1;fill-rule:nonzero;stroke:none"
         id="path10138" />
      <path
         d="m 336.914,1147.371 c -0.437,0.125 -0.648,0.504 -0.648,0.789 0,0.25 0.191,0.539 0.593,0.539 0.438,0 0.879,-0.34 0.879,-0.898 0,-0.61 -0.633,-1.004 -1.375,-1.004 -0.707,0 -1.148,0.484 -1.32,0.699 -0.305,-0.484 -0.977,-0.699 -1.684,-0.699 -1.527,0 -2.347,1.398 -2.347,1.777 0,0.16 0.172,0.16 0.285,0.16 0.152,0 0.23,0 0.285,-0.144 0.344,-1.039 1.227,-1.379 1.723,-1.379 0.457,0 0.687,0.195 0.687,0.555 0,0.234 -0.172,0.859 -0.289,1.273 l -0.418,1.559 c -0.172,0.703 -0.613,1.043 -1.031,1.043 -0.059,0 -0.344,0 -0.574,-0.164 0.437,-0.125 0.648,-0.52 0.648,-0.789 0,-0.25 -0.211,-0.536 -0.609,-0.536 -0.422,0 -0.879,0.34 -0.879,0.895 0,0.609 0.648,1.004 1.394,1.004 0.688,0 1.145,-0.485 1.297,-0.699 0.309,0.484 0.996,0.699 1.684,0.699 1.547,0 2.371,-1.399 2.371,-1.774 0,-0.16 -0.191,-0.16 -0.289,-0.16 -0.152,0 -0.227,0 -0.285,0.141 -0.344,1.043 -1.223,1.383 -1.739,1.383 -0.461,0 -0.671,-0.2 -0.671,-0.575 0,-0.234 0.156,-0.843 0.269,-1.273 0.078,-0.289 0.363,-1.363 0.422,-1.543 0.187,-0.699 0.609,-1.039 1.031,-1.039 0.074,0 0.344,0 0.59,0.16 z"
         style="fill:#f1656a;fill-opacity:1;fill-rule:nonzero;stroke:none"
         id="path10140" />
      <path
         d="m 341.926,1149.094 c 0,-0.879 -0.133,-2.262 -0.801,-3.571 -0.727,-1.398 -1.777,-2.152 -1.891,-2.152 -0.078,0 -0.136,0.055 -0.136,0.129 0,0.035 0,0.051 0.23,0.266 1.203,1.132 1.891,2.941 1.891,5.328 0,1.972 -0.438,3.98 -1.949,5.414 -0.172,0.144 -0.172,0.164 -0.172,0.199 0,0.07 0.058,0.125 0.136,0.125 0.114,0 1.223,-0.789 1.93,-2.242 0.629,-1.254 0.762,-2.528 0.762,-3.496 z"
         style="fill:#0000ff;fill-opacity:1;fill-rule:nonzero;stroke:none"
         id="path10142" />
      <path
         d="m 345.078,1143.785 c 0,-0.195 0,-0.414 -0.226,-0.414 -0.25,0 -0.25,0.219 -0.25,0.414 v 10.633 c 0,0.199 0,0.414 0.25,0.414 0.226,0 0.226,-0.215 0.226,-0.414 z"
         style="fill:#000000;fill-opacity:1;fill-rule:nonzero;stroke:none"
         id="path10144" />
      <path
         d="m 353.566,1147.641 c 0.059,-0.196 0.059,-0.215 0.059,-0.25 0,-0.254 -0.191,-0.504 -0.574,-0.504 -0.629,0 -0.785,0.539 -0.86,0.843 l -0.324,1.184 c -0.137,0.555 -0.363,1.434 -0.5,1.902 -0.074,0.25 -0.437,0.536 -0.476,0.555 -0.133,0.07 -0.438,0.27 -0.84,0.27 -0.707,0 -0.727,-0.575 -0.727,-0.825 0,-0.699 0.383,-1.597 0.727,-2.421 0.113,-0.305 0.152,-0.379 0.152,-0.575 0,-0.664 -0.707,-1.023 -1.375,-1.023 -1.301,0 -1.914,1.543 -1.914,1.777 0,0.16 0.191,0.16 0.309,0.16 0.132,0 0.226,0 0.265,-0.144 0.403,-1.274 1.09,-1.379 1.262,-1.379 0.098,0 0.211,0 0.211,0.234 0,0.266 -0.133,0.555 -0.211,0.735 -0.477,1.148 -0.727,1.808 -0.727,2.382 0,1.309 1.223,1.489 1.93,1.489 0.309,0 0.727,-0.035 1.188,-0.34 -0.344,1.398 -1.262,2.152 -2.102,2.152 -0.172,0 -0.5,-0.019 -0.746,-0.16 0.383,-0.144 0.574,-0.469 0.574,-0.773 0,-0.41 -0.347,-0.52 -0.594,-0.52 -0.441,0 -0.878,0.36 -0.878,0.86 0,0.593 0.648,1.007 1.644,1.007 1.395,0 3,-0.879 3.383,-2.297 z"
         style="fill:#000000;fill-opacity:1;fill-rule:nonzero;stroke:none"
         id="path10146" />
      <path
         d="m 357.695,1149.094 c 0,-0.879 -0.133,-2.262 -0.804,-3.571 -0.727,-1.398 -1.778,-2.152 -1.891,-2.152 -0.078,0 -0.133,0.055 -0.133,0.129 0,0.035 0,0.051 0.227,0.266 1.207,1.132 1.894,2.941 1.894,5.328 0,1.972 -0.441,3.98 -1.949,5.414 -0.172,0.144 -0.172,0.164 -0.172,0.199 0,0.07 0.055,0.125 0.133,0.125 0.113,0 1.223,-0.789 1.93,-2.242 0.632,-1.254 0.765,-2.528 0.765,-3.496 z"
         style="fill:#000000;fill-opacity:1;fill-rule:nonzero;stroke:none"
         id="path10148" />
      <path
         d="m 360.848,1143.371 h -1.664 v 0.469 h 1.187 v 10.527 h -1.187 v 0.465 h 1.664 z"
         style="fill:#000000;fill-opacity:1;fill-rule:nonzero;stroke:none"
         id="path10150" />
      <path
         d="m 377.324,1146.656 h 1.422 c -0.414,1.742 -0.535,2.262 -0.535,3.059 0,0.168 0,0.484 0.101,0.89 0.137,0.52 0.278,0.594 0.454,0.594 0.257,0 0.535,-0.203 0.535,-0.445 0,-0.074 0,-0.094 -0.078,-0.258 -0.379,-0.855 -0.379,-1.633 -0.379,-1.969 0,-0.609 0.101,-1.261 0.238,-1.871 h 1.426 c 0.176,0 0.633,0 0.633,-0.41 0,-0.277 -0.278,-0.277 -0.516,-0.277 h -4.23 c -0.278,0 -0.754,0 -1.305,0.554 -0.438,0.465 -0.774,1.004 -0.774,1.059 0,0.02 0,0.129 0.161,0.129 0.097,0 0.117,-0.055 0.195,-0.149 0.613,-0.906 1.348,-0.906 1.601,-0.906 h 0.715 c -0.398,1.426 -1.07,2.856 -1.601,3.934 -0.102,0.183 -0.102,0.203 -0.102,0.293 0,0.222 0.199,0.316 0.356,0.316 0.379,0 0.476,-0.332 0.632,-0.758 0.18,-0.558 0.18,-0.578 0.336,-1.171 z"
         style="fill:#007806;fill-opacity:1;fill-rule:nonzero;stroke:none"
         id="path10152" />
      <path
         d="m 389.332,1150.402 c 0,-1.558 -1.203,-2.968 -3.754,-2.968 -2.57,0 -3.758,1.429 -3.758,2.968 0,1.559 1.227,2.895 3.758,2.895 2.551,0 3.754,-1.371 3.754,-2.895 z m -3.754,2.508 c -0.535,0 -1.367,-0.113 -1.937,-0.781 -0.438,-0.539 -0.496,-1.297 -0.496,-1.727 0,-0.648 0.117,-1.336 0.574,-1.871 0.433,-0.484 1.144,-0.726 1.859,-0.726 0.652,0 1.383,0.168 1.918,0.8 0.473,0.555 0.512,1.391 0.512,1.797 0,0.875 -0.235,2.508 -2.43,2.508 z m 1.797,-3.379 h -0.551 v 0.297 h -2.472 v -0.297 h -0.575 v 1.653 h 0.575 v -0.278 h 2.472 v 0.278 h 0.551 z"
         style="fill:#007806;fill-opacity:1;fill-rule:nonzero;stroke:none"
         id="path10154" />
      <path
         d="m 391.734,1147.324 c 0,-0.129 0,-0.316 -0.218,-0.316 -0.215,0 -0.215,0.187 -0.215,0.316 v 7.625 c 0,0.129 0,0.317 0.195,0.317 0.238,0 0.238,-0.188 0.238,-0.317 z"
         style="fill:#007806;fill-opacity:1;fill-rule:nonzero;stroke:none"
         id="path10156" />
      <path
         d="m 400.246,1148.309 c 0.277,-0.262 0.594,-0.317 0.988,-0.317 0.157,0 0.176,0 0.239,-0.054 0.078,-0.075 0.097,-0.223 0.097,-0.223 0,-0.113 -0.097,-0.188 -0.199,-0.188 -0.258,0 -0.574,0.039 -0.848,0.039 -0.238,0 -0.832,-0.039 -1.07,-0.039 -0.238,0 -0.277,0.168 -0.277,0.278 0,0.187 0.199,0.187 0.258,0.187 0.019,0 0.179,0 0.316,0.035 l -2.473,2.227 -1.285,-2.242 c 0.238,-0.02 0.457,-0.02 0.516,-0.02 0.117,-0.019 0.199,-0.148 0.199,-0.277 0,-0.074 -0.062,-0.188 -0.219,-0.188 -0.218,0 -0.476,0.02 -0.711,0.02 -0.218,0 -0.476,0.019 -0.691,0.019 -0.18,0 -0.496,0 -0.652,-0.019 -0.2,0 -0.418,-0.02 -0.614,-0.02 -0.062,0 -0.258,0 -0.258,0.278 0,0.187 0.176,0.187 0.376,0.187 0.117,0 0.218,0 0.335,0 0.118,0.02 0.137,0.02 0.2,0.129 l 1.621,2.82 -0.477,1.782 c -0.215,0.019 -0.433,0.019 -0.652,0.019 -0.215,0 -0.238,0 -0.277,0.035 -0.098,0.075 -0.098,0.207 -0.098,0.243 0,0.054 0.058,0.187 0.219,0.187 0.195,0 0.433,-0.019 0.652,-0.019 0.215,0 0.434,-0.02 0.652,-0.02 0.176,0 0.492,0.02 0.672,0.02 0.219,0 0.473,0.019 0.672,0.019 0.059,0 0.297,0 0.297,-0.281 0,-0.184 -0.18,-0.184 -0.375,-0.184 -0.199,0 -0.336,0 -0.535,-0.019 l 0.496,-1.782 z"
         style="fill:#007806;fill-opacity:1;fill-rule:nonzero;stroke:none"
         id="path10158" />
      <path
         d="m 407.02,1153.91 c 0,-0.039 0,-0.058 -0.219,-0.262 -1.563,-1.484 -1.977,-3.726 -1.977,-5.546 0,-2.059 0.473,-4.118 2.035,-5.582 0.161,-0.149 0.161,-0.168 0.161,-0.208 0,-0.089 -0.043,-0.128 -0.122,-0.128 -0.136,0 -1.265,0.816 -2.015,2.32 -0.633,1.297 -0.793,2.613 -0.793,3.598 0,0.929 0.14,2.355 0.832,3.71 0.769,1.446 1.84,2.227 1.976,2.227 0.079,0 0.122,-0.039 0.122,-0.129 z"
         style="fill:#007806;fill-opacity:1;fill-rule:nonzero;stroke:none"
         id="path10160" />
      <path
         d="m 414.648,1145.262 c 0,-2.074 -1.304,-2.504 -2.074,-2.504 -1.012,0 -2.258,0.613 -3.203,2.226 -0.656,1.114 -1.051,2.727 -1.051,3.676 0,1.723 0.969,2.504 2.098,2.504 0.848,0 1.957,-0.465 2.828,-1.672 1.066,-1.445 1.402,-3.34 1.402,-4.23 z m -4.41,1.41 c 0.18,-0.684 0.516,-1.762 0.891,-2.375 0.297,-0.481 0.812,-1.109 1.402,-1.109 0.535,0 0.774,0.515 0.774,1.222 0,0.742 -0.278,1.781 -0.414,2.262 z m 2.492,0.578 c -0.789,3.172 -1.839,3.484 -2.273,3.484 -0.18,0 -0.453,-0.035 -0.633,-0.406 -0.136,-0.316 -0.136,-0.777 -0.136,-0.797 0,-0.668 0.273,-1.781 0.414,-2.281 z"
         style="fill:#000000;fill-opacity:1;fill-rule:nonzero;stroke:none"
         id="path10162" />
      <path
         d="m 417.23,1142.609 c 0,-0.203 0,-0.425 -0.238,-0.425 -0.258,0 -0.258,0.222 -0.258,0.425 v 11.004 c 0,0.203 0,0.426 0.258,0.426 0.238,0 0.238,-0.223 0.238,-0.426 z"
         style="fill:#000000;fill-opacity:1;fill-rule:nonzero;stroke:none"
         id="path10164" />
      <path
         d="m 426.012,1146.598 c 0.058,-0.203 0.058,-0.223 0.058,-0.258 0,-0.262 -0.195,-0.52 -0.593,-0.52 -0.653,0 -0.809,0.555 -0.887,0.871 l -0.336,1.227 c -0.141,0.574 -0.379,1.484 -0.516,1.965 -0.078,0.262 -0.453,0.558 -0.496,0.574 -0.137,0.074 -0.453,0.277 -0.867,0.277 -0.734,0 -0.754,-0.589 -0.754,-0.851 0,-0.723 0.399,-1.653 0.754,-2.504 0.117,-0.317 0.156,-0.391 0.156,-0.594 0,-0.687 -0.73,-1.058 -1.422,-1.058 -1.343,0 -1.976,1.597 -1.976,1.835 0,0.168 0.195,0.168 0.316,0.168 0.137,0 0.235,0 0.274,-0.148 0.418,-1.316 1.129,-1.43 1.304,-1.43 0.102,0 0.219,0 0.219,0.243 0,0.277 -0.137,0.574 -0.219,0.761 -0.492,1.188 -0.75,1.875 -0.75,2.469 0,1.352 1.266,1.539 1.996,1.539 0.317,0 0.754,-0.039 1.227,-0.355 -0.355,1.449 -1.305,2.226 -2.176,2.226 -0.176,0 -0.512,-0.015 -0.769,-0.164 0.394,-0.148 0.593,-0.484 0.593,-0.801 0,-0.425 -0.355,-0.535 -0.613,-0.535 -0.453,0 -0.91,0.371 -0.91,0.891 0,0.609 0.672,1.039 1.699,1.039 1.446,0 3.106,-0.91 3.5,-2.375 z"
         style="fill:#000000;fill-opacity:1;fill-rule:nonzero;stroke:none"
         id="path10166" />
      <path
         d="m 430.281,1148.102 c 0,-0.911 -0.136,-2.336 -0.832,-3.692 -0.75,-1.445 -1.836,-2.226 -1.957,-2.226 -0.078,0 -0.137,0.054 -0.137,0.128 0,0.04 0,0.059 0.239,0.282 1.246,1.168 1.957,3.039 1.957,5.508 0,2.043 -0.457,4.117 -2.02,5.601 -0.176,0.149 -0.176,0.168 -0.176,0.207 0,0.074 0.059,0.129 0.137,0.129 0.121,0 1.266,-0.816 2,-2.32 0.653,-1.297 0.789,-2.614 0.789,-3.617 z"
         style="fill:#007806;fill-opacity:1;fill-rule:nonzero;stroke:none"
         id="path10168" />
      <path
         d="m 371.234,1147.914 c 0.204,0 0.446,0 0.446,-0.226 0,-0.25 -0.242,-0.25 -0.426,-0.25 h -7.762 c -0.183,0 -0.426,0 -0.426,0.25 0,0.226 0.243,0.226 0.426,0.226 z m 0.02,2.363 c 0.184,0 0.426,0 0.426,-0.246 0,-0.23 -0.242,-0.23 -0.446,-0.23 h -7.742 c -0.183,0 -0.426,0 -0.426,0.23 0,0.246 0.243,0.246 0.426,0.246 z"
         style="fill:#000000;fill-opacity:1;fill-rule:nonzero;stroke:none"
         id="path10170" />
      <path
         d="m 310.26,912.422 h 345.89 c 8.35,0 15.07,6.719 15.07,15.066 v 220.18 c 0,8.348 -6.72,15.07 -15.07,15.07 H 310.26 c -8.347,0 -15.066,-6.722 -15.066,-15.07 v -220.18 c 0,-8.347 6.719,-15.066 15.066,-15.066 z"
         style="fill:none;stroke:#000000;stroke-width:1.31951;stroke-linecap:round;stroke-linejoin:miter;stroke-miterlimit:30;stroke-dasharray:none;stroke-opacity:1"
         id="path10174"
         transform="scale(0.88595102,1)" />
      <g
         id="g10176"
         transform="scale(0.885951,1)">
        <path
           d="m 96.436,1007.07 c 13.933,4.578 27.865,9.16 38.121,14.602 10.256,5.445 16.838,11.75 21.415,21.644 4.577,9.891 7.147,23.368 9.718,36.844"
           style="fill:none;stroke:#c48000;stroke-width:0.743062;stroke-linecap:butt;stroke-linejoin:miter;stroke-miterlimit:4;stroke-dasharray:2.22919, 2.22919;stroke-dashoffset:0;stroke-opacity:0.58"
           id="path10178" />
      </g>
      <g
         id="g10180"
         transform="scale(0.885951,1)">
        <path
           d="m 81.577,993.766 c 13.541,3.531 27.081,7.058 38.333,11.226 11.252,4.164 20.216,8.965 27.306,14.828 7.089,5.86 12.305,12.785 16.834,23.371 4.528,10.586 8.368,24.836 12.208,39.082"
           style="fill:none;stroke:#c48000;stroke-width:0.743062;stroke-linecap:butt;stroke-linejoin:miter;stroke-miterlimit:4;stroke-dasharray:2.22919, 2.22919;stroke-dashoffset:0;stroke-opacity:0.58"
           id="path10182" />
      </g>
      <g
         id="g10184"
         transform="scale(0.885951,1)">
        <path
           d="m 116.951,985.441 c 9.176,6.411 18.347,12.825 26.415,19.657 8.073,6.832 15.035,14.082 21.658,22 6.622,7.918 12.901,16.504 16.821,21.761 3.919,5.254 5.476,7.18 7.032,9.106"
           style="fill:none;stroke:#c48000;stroke-width:0.743062;stroke-linecap:butt;stroke-linejoin:miter;stroke-miterlimit:4;stroke-dasharray:2.22919, 2.22919;stroke-dashoffset:0;stroke-opacity:0.58"
           id="path10186" />
      </g>
      <g
         id="g10188"
         transform="scale(0.885951,1)">
        <path
           d="m 133.049,963.176 c 6.01,11.816 12.024,23.633 18.43,33.832 6.411,10.199 13.219,18.785 19.449,25.937 6.234,7.157 11.891,12.883 18.805,18.336 6.913,5.453 15.083,10.633 23.253,15.813"
           style="fill:none;stroke:#c48000;stroke-width:0.743062;stroke-linecap:butt;stroke-linejoin:miter;stroke-miterlimit:4;stroke-dasharray:2.22919, 2.22919;stroke-dashoffset:0;stroke-opacity:0.58"
           id="path10190" />
      </g>
      <g
         id="g10192"
         transform="scale(0.885951,1)">
        <path
           d="m 151.497,979.695 c 5.851,9.938 11.697,19.871 16.979,27.575 5.282,7.703 9.991,13.171 16.737,19.066 6.751,5.898 15.533,12.226 24.312,18.551"
           style="fill:none;stroke:#c48000;stroke-width:0.742001;stroke-linecap:butt;stroke-linejoin:miter;stroke-miterlimit:4;stroke-dasharray:2.226, 2.226;stroke-dashoffset:0;stroke-opacity:0.58"
           id="path10194" />
      </g>
      <path
         d="m 162.062,993.266 -1.558,1.578 0.199,0.199 1.359,-1.18 1.325,1.18 0.199,-0.199 z"
         style="fill:#000000;fill-opacity:1;fill-rule:nonzero;stroke:none"
         id="path10196" />
      <path
         d="m 162.465,1000.641 c 0.125,0.472 0.543,0.781 1.031,0.781 0.399,0 0.672,-0.274 0.852,-0.637 0.199,-0.414 0.347,-1.121 0.347,-1.14 0,-0.125 -0.093,-0.125 -0.129,-0.125 -0.125,0 -0.125,0.054 -0.164,0.214 -0.16,0.653 -0.379,1.434 -0.867,1.434 -0.238,0 -0.363,-0.145 -0.363,-0.527 0,-0.254 0.144,-0.797 0.234,-1.211 l 0.328,-1.254 c 0.036,-0.16 0.145,-0.598 0.2,-0.778 0.054,-0.273 0.16,-0.707 0.16,-0.781 0,-0.199 -0.16,-0.305 -0.324,-0.305 -0.055,0 -0.364,0.016 -0.454,0.399 -0.218,0.851 -0.726,2.879 -0.871,3.477 -0.015,0.054 -0.468,0.98 -1.32,0.98 -0.598,0 -0.707,-0.527 -0.707,-0.941 0,-0.653 0.324,-1.559 0.613,-2.356 0.149,-0.363 0.203,-0.527 0.203,-0.746 0,-0.508 -0.363,-0.941 -0.945,-0.941 -1.105,0 -1.519,1.687 -1.519,1.777 0,0.125 0.105,0.125 0.125,0.125 0.128,0 0.128,-0.035 0.183,-0.215 0.289,-1 0.742,-1.433 1.176,-1.433 0.109,0 0.289,0.019 0.289,0.382 0,0.27 -0.125,0.614 -0.199,0.778 -0.434,1.16 -0.668,1.867 -0.668,2.429 0,1.106 0.797,1.395 1.41,1.395 0.762,0 1.18,-0.527 1.379,-0.781 z"
         style="fill:#000000;fill-opacity:1;fill-rule:nonzero;stroke:none"
         id="path10198" />
      <path
         d="m 170.293,1000 c 0,-0.016 -0.055,-0.09 -0.055,-0.109 0,0 0.164,-0.145 0.254,-0.235 l 1.36,-1.23 c 0.453,-0.399 0.523,-0.492 1.359,-0.492 0.164,0 0.199,-0.215 0.199,-0.27 0,-0.129 -0.109,-0.184 -0.183,-0.184 -0.2,0 -0.688,0.04 -0.887,0.04 -0.18,0 -0.399,0 -0.563,-0.02 -0.179,0 -0.379,-0.02 -0.543,-0.02 -0.054,0 -0.254,0 -0.254,0.274 0,0.18 0.165,0.18 0.239,0.18 0.105,0 0.215,0.019 0.343,0.054 l -1.597,1.45 -0.852,-1.465 c 0.164,-0.039 0.199,-0.039 0.418,-0.039 0.199,0 0.219,-0.215 0.219,-0.27 0,-0.129 -0.109,-0.184 -0.199,-0.184 -0.129,0 -0.438,0.02 -0.598,0.02 -0.183,0.02 -0.473,0.02 -0.672,0.02 -0.179,0 -0.379,-0.02 -0.543,-0.02 -0.199,0 -0.398,-0.02 -0.582,-0.02 -0.054,0 -0.254,0 -0.254,0.274 0,0.18 0.164,0.18 0.348,0.18 0.105,0 0.215,0 0.324,0 0.129,0.019 0.129,0.019 0.18,0.128 l 1.305,2.211 -2.207,2.012 c -0.164,0.145 -0.383,0.289 -1.036,0.289 -0.144,0 -0.324,0 -0.324,0.27 0,0.109 0.09,0.183 0.18,0.183 0.199,0 0.707,-0.035 0.906,-0.035 0.164,0 0.379,0 0.563,0.016 0.164,0 0.363,0.019 0.543,0.019 0.125,0 0.254,-0.054 0.254,-0.273 0,-0.016 0,-0.18 -0.2,-0.18 -0.164,0 -0.273,-0.019 -0.383,-0.054 l 1.957,-1.793 1.051,1.812 c -0.125,0.016 -0.304,0.035 -0.414,0.035 -0.054,0 -0.199,0.035 -0.199,0.27 0,0.074 0.055,0.183 0.18,0.183 0.199,0 0.418,-0.019 0.597,-0.019 0.184,-0.016 0.489,-0.016 0.672,-0.016 0.18,0 0.379,0.016 0.563,0.016 0.179,0 0.379,0.019 0.558,0.019 0.129,0 0.254,-0.054 0.254,-0.273 0,-0.18 -0.16,-0.18 -0.344,-0.18 -0.109,0 -0.214,0 -0.308,0 -0.145,-0.019 -0.145,-0.019 -0.199,-0.129 z"
         style="fill:#000000;fill-opacity:1;fill-rule:nonzero;stroke:none"
         id="path10200" />
      <path
         d="m 178.574,1004.066 c 0,-0.035 0,-0.054 -0.199,-0.254 -1.43,-1.449 -1.813,-3.64 -1.813,-5.417 0,-2.012 0.438,-4.024 1.868,-5.454 0.144,-0.144 0.144,-0.164 0.144,-0.199 0,-0.09 -0.035,-0.129 -0.109,-0.129 -0.125,0 -1.16,0.797 -1.848,2.266 -0.578,1.269 -0.722,2.555 -0.722,3.516 0,0.906 0.125,2.3 0.757,3.625 0.707,1.414 1.688,2.175 1.813,2.175 0.074,0 0.109,-0.039 0.109,-0.129 z"
         style="fill:#000000;fill-opacity:1;fill-rule:nonzero;stroke:none"
         id="path10202" />
      <path
         d="m 181.617,996.672 h 1.09 c 0.234,0 0.359,0 0.359,-0.234 0,-0.126 -0.125,-0.126 -0.324,-0.126 h -1.015 c 0.418,-1.652 0.472,-1.867 0.472,-1.941 0,-0.199 -0.144,-0.309 -0.344,-0.309 -0.039,0 -0.363,0 -0.453,0.418 l -0.453,1.832 h -1.09 c -0.234,0 -0.343,0 -0.343,0.215 0,0.145 0.089,0.145 0.328,0.145 h 1.011 c -0.832,3.281 -0.886,3.48 -0.886,3.68 0,0.632 0.433,1.07 1.07,1.07 1.176,0 1.828,-1.688 1.828,-1.777 0,-0.125 -0.09,-0.125 -0.125,-0.125 -0.109,0 -0.129,0.035 -0.183,0.16 -0.489,1.215 -1.106,1.488 -1.504,1.488 -0.235,0 -0.36,-0.145 -0.36,-0.527 0,-0.289 0.035,-0.36 0.071,-0.559 z"
         style="fill:#000000;fill-opacity:1;fill-rule:nonzero;stroke:none"
         id="path10204" />
      <path
         d="m 185.773,1001.277 c 0,-0.761 -0.293,-1.215 -0.746,-1.215 -0.379,0 -0.613,0.29 -0.613,0.618 0,0.304 0.234,0.613 0.613,0.613 0.129,0 0.293,-0.055 0.399,-0.145 0.039,-0.035 0.054,-0.035 0.054,-0.035 0.02,0 0.02,0 0.02,0.164 0,0.868 -0.398,1.559 -0.777,1.938 -0.129,0.129 -0.129,0.144 -0.129,0.18 0,0.093 0.054,0.128 0.109,0.128 0.125,0 1.07,-0.886 1.07,-2.246 z"
         style="fill:#000000;fill-opacity:1;fill-rule:nonzero;stroke:none"
         id="path10206" />
      <path
         d="m 194.75,996.656 c -0.418,0.125 -0.617,0.508 -0.617,0.797 0,0.254 0.183,0.543 0.562,0.543 0.418,0 0.832,-0.344 0.832,-0.906 0,-0.617 -0.597,-1.016 -1.304,-1.016 -0.668,0 -1.086,0.492 -1.25,0.707 -0.289,-0.488 -0.922,-0.707 -1.594,-0.707 -1.449,0 -2.231,1.414 -2.231,1.797 0,0.16 0.164,0.16 0.274,0.16 0.144,0 0.219,0 0.273,-0.144 0.325,-1.051 1.157,-1.395 1.629,-1.395 0.434,0 0.653,0.199 0.653,0.563 0,0.234 -0.165,0.867 -0.27,1.285 l -0.402,1.578 c -0.16,0.707 -0.578,1.051 -0.977,1.051 -0.055,0 -0.328,0 -0.543,-0.164 0.414,-0.125 0.617,-0.524 0.617,-0.797 0,-0.254 -0.203,-0.543 -0.582,-0.543 -0.398,0 -0.832,0.344 -0.832,0.906 0,0.613 0.614,1.016 1.321,1.016 0.652,0 1.089,-0.492 1.234,-0.707 0.289,0.488 0.941,0.707 1.594,0.707 1.468,0 2.246,-1.414 2.246,-1.797 0,-0.16 -0.18,-0.16 -0.27,-0.16 -0.144,0 -0.218,0 -0.273,0.144 -0.324,1.051 -1.16,1.395 -1.649,1.395 -0.433,0 -0.632,-0.199 -0.632,-0.582 0,-0.235 0.144,-0.852 0.25,-1.285 0.074,-0.29 0.347,-1.379 0.402,-1.559 0.18,-0.707 0.578,-1.051 0.977,-1.051 0.074,0 0.328,0 0.562,0.164 z"
         style="fill:#000000;fill-opacity:1;fill-rule:nonzero;stroke:none"
         id="path10208" />
      <path
         d="m 198.16,999.836 h 0.813 c 0.164,0 0.254,0 0.254,-0.18 0,-0.109 -0.09,-0.109 -0.235,-0.109 h -0.762 l 0.29,-1.195 c 0.019,-0.036 0.039,-0.09 0.039,-0.11 0,-0.164 -0.129,-0.269 -0.289,-0.269 -0.2,0 -0.309,0.144 -0.383,0.343 -0.055,0.215 0.054,-0.183 -0.309,1.231 h -0.812 c -0.149,0 -0.254,0 -0.254,0.183 0,0.106 0.09,0.106 0.234,0.106 h 0.762 l -0.473,1.906 c -0.055,0.199 -0.125,0.488 -0.125,0.598 0,0.469 0.414,0.758 0.867,0.758 0.907,0 1.414,-1.121 1.414,-1.231 0,-0.109 -0.109,-0.109 -0.125,-0.109 -0.109,0 -0.109,0.019 -0.183,0.164 -0.215,0.508 -0.633,0.961 -1.067,0.961 -0.183,0 -0.293,-0.11 -0.293,-0.399 0,-0.074 0.039,-0.254 0.055,-0.328 z"
         style="fill:#000000;fill-opacity:1;fill-rule:nonzero;stroke:none"
         id="path10210" />
      <path
         d="m 202.59,1001.277 c 0,-0.761 -0.289,-1.215 -0.742,-1.215 -0.383,0 -0.618,0.29 -0.618,0.618 0,0.304 0.235,0.613 0.618,0.613 0.125,0 0.289,-0.055 0.398,-0.145 0.035,-0.035 0.055,-0.035 0.055,-0.035 0.015,0 0.015,0 0.015,0.164 0,0.868 -0.398,1.559 -0.777,1.938 -0.129,0.129 -0.129,0.144 -0.129,0.18 0,0.093 0.055,0.128 0.11,0.128 0.128,0 1.07,-0.886 1.07,-2.246 z"
         style="fill:#000000;fill-opacity:1;fill-rule:nonzero;stroke:none"
         id="path10212" />
      <path
         d="m 212.039,996.926 c 0.055,-0.199 0.055,-0.215 0.055,-0.254 0,-0.254 -0.184,-0.504 -0.547,-0.504 -0.598,0 -0.742,0.543 -0.813,0.852 l -0.308,1.195 c -0.129,0.562 -0.344,1.449 -0.473,1.918 -0.07,0.254 -0.418,0.547 -0.453,0.562 -0.125,0.075 -0.418,0.274 -0.797,0.274 -0.672,0 -0.687,-0.582 -0.687,-0.836 0,-0.703 0.363,-1.61 0.687,-2.445 0.109,-0.309 0.145,-0.379 0.145,-0.579 0,-0.671 -0.668,-1.035 -1.305,-1.035 -1.231,0 -1.813,1.559 -1.813,1.797 0,0.16 0.184,0.16 0.293,0.16 0.125,0 0.215,0 0.25,-0.144 0.383,-1.285 1.036,-1.395 1.2,-1.395 0.089,0 0.199,0 0.199,0.235 0,0.273 -0.129,0.562 -0.199,0.746 -0.453,1.156 -0.692,1.828 -0.692,2.406 0,1.324 1.16,1.508 1.832,1.508 0.289,0 0.688,-0.039 1.121,-0.348 -0.324,1.414 -1.195,2.176 -1.992,2.176 -0.164,0 -0.469,-0.02 -0.707,-0.164 0.363,-0.145 0.543,-0.469 0.543,-0.778 0,-0.418 -0.324,-0.527 -0.558,-0.527 -0.418,0 -0.836,0.363 -0.836,0.871 0,0.598 0.617,1.016 1.558,1.016 1.324,0 2.848,-0.891 3.207,-2.321 z"
         style="fill:#000000;fill-opacity:1;fill-rule:nonzero;stroke:none"
         id="path10214" />
      <path
         d="m 215.953,998.395 c 0,-0.887 -0.129,-2.282 -0.762,-3.606 -0.687,-1.414 -1.687,-2.176 -1.793,-2.176 -0.074,0 -0.128,0.055 -0.128,0.129 0,0.035 0,0.055 0.218,0.27 1.141,1.144 1.793,2.972 1.793,5.383 0,1.992 -0.418,4.023 -1.847,5.472 -0.164,0.145 -0.164,0.164 -0.164,0.199 0,0.075 0.054,0.129 0.128,0.129 0.106,0 1.157,-0.8 1.829,-2.265 0.597,-1.27 0.726,-2.555 0.726,-3.535 z"
         style="fill:#000000;fill-opacity:1;fill-rule:nonzero;stroke:none"
         id="path10216" />
      <g
         id="g10218"
         transform="scale(0.885951,1)">
        <path
           d="m 215.799,1057.828 v 93.582 h 85.859"
           style="fill:none;stroke:#f1656a;stroke-width:0.755575;stroke-linecap:butt;stroke-linejoin:miter;stroke-miterlimit:4;stroke-dasharray:4.53345, 0.755575;stroke-dashoffset:0;stroke-opacity:1"
           id="path10220" />
      </g>
      <path
         d="m 267.926,1151.41 -2.012,2.266 h -1.336 l 2.008,-2.266 -2.008,-2.265 h 1.336 z"
         style="fill:#f1656a;fill-opacity:1;fill-rule:evenodd;stroke:none"
         id="path10222" />
      <g
         id="g10224"
         transform="scale(0.885951,1)">
        <path
           d="m 427.119,1067.953 c 12.892,2.359 25.784,4.719 38.244,5.633 12.465,0.914 24.497,0.383 36.613,-0.988 12.121,-1.371 24.325,-3.578 35.026,-6.586 10.701,-3.008 19.894,-6.817 29.092,-10.625"
           style="fill:none;stroke:#000000;stroke-width:0.742001;stroke-linecap:butt;stroke-linejoin:miter;stroke-miterlimit:4;stroke-dasharray:2.226, 2.226;stroke-dashoffset:0;stroke-opacity:0.657371"
           id="path10226" />
      </g>
      <g
         id="g10228"
         transform="scale(0.885951,1)">
        <path
           d="m 414.442,1044.543 c 13.193,8.605 26.385,17.207 43.338,20.519 16.953,3.313 37.667,1.333 52.64,-1.636 14.978,-2.969 24.219,-6.93 32.103,-10.887 7.887,-3.961 14.417,-7.922 20.947,-11.879"
           style="fill:none;stroke:#000000;stroke-width:0.742001;stroke-linecap:butt;stroke-linejoin:miter;stroke-miterlimit:4;stroke-dasharray:2.226, 2.226;stroke-dashoffset:0;stroke-opacity:0.657371"
           id="path10230" />
      </g>
      <g
         id="g10232">
        <path
           d="m 362.645,1079.375 c 13.628,-0.152 27.257,-0.305 39.441,-0.344 12.184,-0.039 22.922,0.039 31.641,0.266 8.718,0.23 15.418,0.609 24.593,1.562 9.176,0.95 20.825,2.473 32.477,3.996"
           style="fill:none;stroke:#000000;stroke-width:0.698406;stroke-linecap:butt;stroke-linejoin:miter;stroke-miterlimit:4;stroke-dasharray:2.09522, 2.09522;stroke-dashoffset:0;stroke-opacity:0.657371"
           id="path10234" />
      </g>
      <g
         id="g10236">
        <path
           d="m 350.309,1108.387 c 13.629,-4.723 27.257,-9.446 38.679,-12.528 11.422,-3.086 20.637,-4.531 28.481,-4.91 7.843,-0.383 14.316,0.305 22.195,1.824 7.883,1.524 17.172,3.887 26.383,6.055 9.215,2.172 18.351,4.152 27.488,6.129"
           style="fill:none;stroke:#000000;stroke-width:0.698406;stroke-linecap:butt;stroke-linejoin:miter;stroke-miterlimit:4;stroke-dasharray:2.09522, 2.09522;stroke-dashoffset:0;stroke-opacity:0.657371"
           id="path10238" />
      </g>
      <g
         id="g10240">
        <path
           d="m 359.902,1090.109 c 14.926,-1.675 29.848,-3.347 40.965,-4.148 11.117,-0.801 18.43,-0.723 26.309,-0.57 7.883,0.152 16.332,0.379 24.785,1.406 8.453,1.027 16.906,2.855 25.355,4.683"
           style="fill:none;stroke:#000000;stroke-width:0.698406;stroke-linecap:butt;stroke-linejoin:miter;stroke-miterlimit:4;stroke-dasharray:2.09522, 2.09522;stroke-dashoffset:0;stroke-opacity:0.657371"
           id="path10242" />
      </g>
      <g
         id="g10244">
        <path
           d="m 352.594,1121.176 c 11.117,-5.328 22.234,-10.66 32.285,-14.656 10.051,-3.997 19.035,-6.665 26.117,-7.805 7.082,-1.141 12.258,-0.762 19.453,0.379 7.199,1.144 16.41,3.047 25.281,5.597 8.872,2.551 17.399,5.75 22.844,7.692 5.446,1.941 7.805,2.625 10.164,3.312"
           style="fill:none;stroke:#000000;stroke-width:0.698406;stroke-linecap:butt;stroke-linejoin:miter;stroke-miterlimit:4;stroke-dasharray:2.09522, 2.09522;stroke-dashoffset:0;stroke-opacity:0.657371"
           id="path10246" />
      </g>
    </g>
  </g>
</svg>
