<?xml version="1.0" encoding="UTF-8" standalone="no"?>
<!-- Created with Inkscape (http://www.inkscape.org/) -->

<svg
   width="196.88008mm"
   height="117.74966mm"
   viewBox="0 0 196.88008 117.74966"
   version="1.1"
   id="svg13407"
   sodipodi:docname="schema_0.svg"
   inkscape:version="1.1.2 (0a00cf5339, 2022-02-04)"
   xmlns:inkscape="http://www.inkscape.org/namespaces/inkscape"
   xmlns:sodipodi="http://sodipodi.sourceforge.net/DTD/sodipodi-0.dtd"
   xmlns="http://www.w3.org/2000/svg"
   xmlns:svg="http://www.w3.org/2000/svg">
  <sodipodi:namedview
     id="namedview13409"
     pagecolor="#ffffff"
     bordercolor="#666666"
     borderopacity="1.0"
     inkscape:pageshadow="2"
     inkscape:pageopacity="0.0"
     inkscape:pagecheckerboard="0"
     inkscape:document-units="mm"
     showgrid="false"
     inkscape:zoom="1.1474186"
     inkscape:cx="211.34396"
     inkscape:cy="221.80222"
     inkscape:window-width="1713"
     inkscape:window-height="1400"
     inkscape:window-x="3642"
     inkscape:window-y="35"
     inkscape:window-maximized="1"
     inkscape:current-layer="g10681" />
  <defs
     id="defs13404" />
  <g
     inkscape:label="Calque 1"
     inkscape:groupmode="layer"
     id="layer1"
     transform="translate(8.4354566,-5.6936892)">
    <g
       id="g28740"
       transform="matrix(0.35277777,0,0,0.35277777,-112.6463,-130.2626)">
      <g
         id="g10681"
         transform="translate(258.23357,-526.37433)">
        <g
           id="g9958"
           transform="scale(0.885951,1)">
          <path
             d="m 468.035,999.559 c 24.034,24.824 124.95,-65.399 91.299,-50.231 -46.405,15.067 -80.982,18.289 -99.8,-28.234 -6.772,-16.754 -26.331,36.066 -44.92,74.586 -4.241,8.789 43.523,-2.387 53.421,3.879 z"
             style="fill:none;stroke:#083ccc;stroke-width:1.7369;stroke-linecap:butt;stroke-linejoin:miter;stroke-miterlimit:4;stroke-dasharray:none;stroke-opacity:1"
             id="path9960" />
        </g>
        <path
           d="m 94.473,982.008 c -0.649,-0.535 -0.711,-1.465 -0.137,-2.07 0.574,-0.61 1.562,-0.665 2.215,-0.129 0.648,0.535 0.711,1.461 0.137,2.07 -0.575,0.605 -1.563,0.664 -2.215,0.129"
           style="fill:#000000;fill-opacity:1;fill-rule:nonzero;stroke:none"
           id="path9962" />
        <g
           id="g9966"
           transform="scale(0.885951,1)">
          <path
             d="m 59.527,912.758 h 206.871 c 9.369,0 16.909,7.543 16.909,16.906 v 216.762 c 0,9.363 -7.54,16.906 -16.909,16.906 H 59.527 c -9.369,0 -16.909,-7.543 -16.909,-16.906 V 929.664 c 0,-9.363 7.54,-16.906 16.909,-16.906 z"
             style="fill:none;stroke:#000000;stroke-width:1.33237;stroke-linecap:round;stroke-linejoin:miter;stroke-miterlimit:30;stroke-dasharray:none;stroke-opacity:1"
             id="path9968" />
        </g>
        <g
           id="g9970"
           transform="scale(0.885951,1)">
          <path
             d="m 519.511,1072.688 c -3.721,20.257 -11.953,32.359 23.43,40.496 27.91,6.418 54.157,37.058 74.259,19.73 24.717,-21.301 21.326,-66.352 -5.375,-69.738 -31.785,-4.031 -20.392,-26.535 -45.268,-22.969 -24.705,3.543 -43.249,11.801 -47.046,32.481 z"
             style="fill:none;stroke:#000000;stroke-width:1.38323;stroke-linecap:butt;stroke-linejoin:miter;stroke-miterlimit:4;stroke-dasharray:none;stroke-opacity:1"
             id="path9972" />
        </g>
        <g
           id="g9974"
           transform="scale(0.885951,1)">
          <path
             d="m 537.117,1076.445 c -2.504,13.621 -8.038,21.754 15.754,27.227 18.765,4.316 36.414,24.918 49.928,13.269 45.599,-39.304 -56.749,-89.136 -65.682,-40.496 z"
             style="fill:none;stroke:#000000;stroke-width:1.57144;stroke-linecap:butt;stroke-linejoin:miter;stroke-miterlimit:4;stroke-dasharray:none;stroke-opacity:1"
             id="path9976" />
        </g>
        <g
           id="g9978"
           transform="scale(0.885951,1)">
          <path
             d="m 555.97,1081.039 c -3.827,20.836 23.571,24.211 30.542,18.145 25.026,-21.789 -25.718,-44.383 -30.542,-18.145 z"
             style="fill:none;stroke:#000000;stroke-width:1.64779;stroke-linecap:butt;stroke-linejoin:miter;stroke-miterlimit:4;stroke-dasharray:none;stroke-opacity:1"
             id="path9980" />
        </g>
        <g
           id="g9982"
           transform="scale(0.885951,1)">
          <path
             d="m 563.598,1057.562 c -1.195,-0.874 -1.309,-2.386 -0.251,-3.374 1.053,-0.989 2.879,-1.083 4.074,-0.211 1.195,0.875 1.309,2.386 0.255,3.375 -1.058,0.992 -2.879,1.086 -4.078,0.21"
             style="fill:#000000;fill-opacity:1;fill-rule:nonzero;stroke:#000000;stroke-width:1.25282;stroke-linecap:round;stroke-linejoin:miter;stroke-miterlimit:30;stroke-dasharray:none;stroke-opacity:1"
             id="path9984" />
        </g>
        <g
           id="g9998"
           transform="scale(1,0.938288)">
          <path
             d="m 416.973,1049.809 c 20.004,20.604 62,-25.249 33.152,-13.218 -20.535,6.399 -31.719,11.953 -34.043,-10.587 -1.898,-18.388 -12.277,0.196 -22.062,23.035 -2.516,5.874 13.312,-6.573 22.953,0.77 z m -1.934,9.438 c 23.953,22.244 83.227,-47.052 54.379,-35.016 -39.356,15.033 -37.469,23.23 -62.277,-24.38 -8.329,-15.99 -15.899,29.671 -31.938,56.653 -4.816,8.097 31.91,-7.835 39.836,2.743 z"
             style="fill:none;stroke:#0000ff;stroke-width:1.68698;stroke-linecap:butt;stroke-linejoin:miter;stroke-miterlimit:4;stroke-dasharray:none;stroke-opacity:1"
             id="path10000" />
        </g>
        <path
           d="m 315.879,925.535 -1.902,1.801 0.242,0.23 1.66,-1.347 1.613,1.347 0.242,-0.23 z"
           style="fill:#0000ff;fill-opacity:1;fill-rule:nonzero;stroke:none"
           id="path10002" />
        <path
           d="m 311.785,936.336 c -0.109,0.457 -0.152,0.539 -0.773,0.539 -0.153,0 -0.309,0 -0.309,0.25 0,0.102 0.067,0.164 0.176,0.164 0.379,0 0.797,-0.043 1.172,-0.043 0.488,0 0.949,0.043 1.414,0.043 0.066,0 0.246,0 0.246,-0.269 0,-0.145 -0.133,-0.145 -0.332,-0.145 -0.707,0 -0.707,-0.082 -0.707,-0.207 0,-0.168 0.594,-2.324 0.683,-2.656 0.176,0.394 0.575,0.851 1.305,0.851 1.633,0 3.402,-1.929 3.402,-3.875 0,-1.246 -0.816,-2.117 -1.878,-2.117 -0.707,0 -1.391,0.477 -1.856,0.996 -0.133,-0.726 -0.75,-0.996 -1.262,-0.996 -0.66,0 -0.925,0.52 -1.035,0.746 -0.265,0.457 -0.445,1.246 -0.445,1.285 0,0.145 0.133,0.145 0.156,0.145 0.156,0 0.156,-0.02 0.242,-0.309 0.246,-0.933 0.532,-1.578 1.039,-1.578 0.243,0 0.442,0.106 0.442,0.602 0,0.312 -0.043,0.457 -0.11,0.687 z m 2.477,-5.742 c 0.09,-0.356 0.484,-0.727 0.73,-0.934 0.508,-0.394 0.906,-0.5 1.149,-0.5 0.55,0 0.906,0.457 0.906,1.246 0,0.789 -0.465,2.301 -0.731,2.797 -0.484,0.934 -1.148,1.371 -1.679,1.371 -0.926,0 -1.106,-1.101 -1.106,-1.183 0,-0.02 0,-0.039 0.047,-0.207 z"
           style="fill:#0000ff;fill-opacity:1;fill-rule:nonzero;stroke:none"
           id="path10004" />
        <path
           d="m 327.359,933.973 c 0,-1.743 -1.347,-3.317 -4.195,-3.317 -2.875,0 -4.199,1.598 -4.199,3.317 0,1.742 1.371,3.234 4.199,3.234 2.848,0 4.195,-1.535 4.195,-3.234 z m -4.195,2.8 c -0.598,0 -1.527,-0.125 -2.168,-0.871 -0.484,-0.601 -0.551,-1.453 -0.551,-1.929 0,-0.727 0.133,-1.493 0.641,-2.094 0.484,-0.539 1.281,-0.809 2.078,-0.809 0.727,0 1.547,0.188 2.141,0.891 0.531,0.625 0.574,1.555 0.574,2.012 0,0.976 -0.266,2.8 -2.715,2.8 z M 325.172,933 h -0.617 v 0.332 h -2.762 V 933 h -0.641 v 1.844 h 0.641 v -0.313 h 2.762 v 0.313 h 0.617 z"
           style="fill:#0000ff;fill-opacity:1;fill-rule:nonzero;stroke:none"
           id="path10006" />
        <path
           d="m 330.043,930.531 c 0,-0.144 0,-0.351 -0.242,-0.351 -0.246,0 -0.246,0.207 -0.246,0.351 v 8.524 c 0,0.144 0,0.351 0.222,0.351 0.266,0 0.266,-0.207 0.266,-0.351 z"
           style="fill:#0000ff;fill-opacity:1;fill-rule:nonzero;stroke:none"
           id="path10008" />
        <path
           d="m 337.875,933.641 c 0,-0.02 -0.066,-0.102 -0.066,-0.125 0,0 0.199,-0.164 0.308,-0.27 l 1.656,-1.406 c 0.555,-0.457 0.641,-0.563 1.657,-0.563 0.199,0 0.246,-0.246 0.246,-0.308 0,-0.149 -0.133,-0.207 -0.223,-0.207 -0.242,0 -0.84,0.039 -1.082,0.039 -0.223,0 -0.488,0 -0.683,-0.02 -0.223,0 -0.465,-0.019 -0.665,-0.019 -0.066,0 -0.308,0 -0.308,0.308 0,0.207 0.199,0.207 0.285,0.207 0.133,0 0.266,0.024 0.422,0.063 l -1.945,1.66 -1.039,-1.68 c 0.199,-0.043 0.242,-0.043 0.507,-0.043 0.243,0 0.266,-0.246 0.266,-0.308 0,-0.149 -0.133,-0.207 -0.242,-0.207 -0.157,0 -0.531,0.019 -0.731,0.019 -0.218,0.02 -0.574,0.02 -0.816,0.02 -0.223,0 -0.465,-0.02 -0.664,-0.02 -0.242,0 -0.485,-0.019 -0.707,-0.019 -0.067,0 -0.309,0 -0.309,0.308 0,0.207 0.199,0.207 0.418,0.207 0.133,0 0.266,0 0.399,0 0.156,0.024 0.156,0.024 0.222,0.145 l 1.59,2.531 -2.695,2.301 c -0.199,0.164 -0.465,0.332 -1.262,0.332 -0.176,0 -0.394,0 -0.394,0.312 0,0.122 0.109,0.207 0.218,0.207 0.242,0 0.864,-0.043 1.106,-0.043 0.199,0 0.465,0 0.683,0.02 0.2,0 0.446,0.023 0.664,0.023 0.157,0 0.309,-0.062 0.309,-0.312 0,-0.02 0,-0.207 -0.242,-0.207 -0.199,0 -0.332,-0.02 -0.465,-0.063 l 2.387,-2.05 1.281,2.07 c -0.152,0.023 -0.375,0.043 -0.508,0.043 -0.066,0 -0.242,0.043 -0.242,0.312 0,0.082 0.066,0.207 0.223,0.207 0.242,0 0.507,-0.023 0.726,-0.023 0.223,-0.02 0.598,-0.02 0.82,-0.02 0.219,0 0.461,0.02 0.684,0.02 0.219,0 0.465,0.023 0.684,0.023 0.156,0 0.308,-0.062 0.308,-0.312 0,-0.207 -0.199,-0.207 -0.418,-0.207 -0.133,0 -0.265,0 -0.375,0 -0.175,-0.02 -0.175,-0.02 -0.242,-0.145 z"
           style="fill:#0000ff;fill-opacity:1;fill-rule:nonzero;stroke:none"
           id="path10010" />
        <path
           d="m 347.973,937.891 c 0,-0.043 0,-0.063 -0.243,-0.289 -1.746,-1.661 -2.21,-4.168 -2.21,-6.2 0,-2.3 0.531,-4.605 2.277,-6.242 0.176,-0.164 0.176,-0.187 0.176,-0.226 0,-0.106 -0.043,-0.145 -0.133,-0.145 -0.152,0 -1.414,0.91 -2.254,2.59 -0.707,1.453 -0.883,2.922 -0.883,4.023 0,1.036 0.156,2.633 0.93,4.145 0.859,1.617 2.055,2.488 2.207,2.488 0.09,0 0.133,-0.043 0.133,-0.144 z"
           style="fill:#0000ff;fill-opacity:1;fill-rule:nonzero;stroke:none"
           id="path10012" />
        <path
           d="m 356.5,928.23 c 0,-2.324 -1.457,-2.8 -2.32,-2.8 -1.125,0 -2.52,0.683 -3.578,2.488 -0.731,1.242 -1.172,3.047 -1.172,4.105 0,1.926 1.082,2.797 2.343,2.797 0.95,0 2.188,-0.515 3.161,-1.863 1.191,-1.617 1.566,-3.734 1.566,-4.727 z m -4.926,1.575 c 0.199,-0.766 0.574,-1.969 0.992,-2.653 0.332,-0.539 0.907,-1.246 1.571,-1.246 0.597,0 0.863,0.582 0.863,1.367 0,0.832 -0.312,1.993 -0.465,2.532 z m 2.785,0.644 c -0.886,3.543 -2.058,3.895 -2.543,3.895 -0.199,0 -0.507,-0.039 -0.707,-0.453 -0.156,-0.356 -0.156,-0.871 -0.156,-0.895 0,-0.746 0.313,-1.988 0.465,-2.547 z"
           style="fill:#0000ff;fill-opacity:1;fill-rule:nonzero;stroke:none"
           id="path10014" />
        <path
           d="m 359.387,925.266 c 0,-0.231 0,-0.477 -0.266,-0.477 -0.285,0 -0.285,0.246 -0.285,0.477 v 12.293 c 0,0.226 0,0.476 0.285,0.476 0.266,0 0.266,-0.25 0.266,-0.476 z"
           style="fill:#0000ff;fill-opacity:1;fill-rule:nonzero;stroke:none"
           id="path10016" />
        <path
           d="m 369.199,929.723 c 0.067,-0.231 0.067,-0.25 0.067,-0.293 0,-0.289 -0.219,-0.578 -0.664,-0.578 -0.727,0 -0.907,0.621 -0.993,0.972 l -0.375,1.371 c -0.156,0.641 -0.422,1.657 -0.574,2.196 -0.09,0.289 -0.508,0.621 -0.555,0.644 -0.152,0.082 -0.507,0.309 -0.972,0.309 -0.817,0 -0.84,-0.664 -0.84,-0.953 0,-0.809 0.441,-1.844 0.84,-2.797 0.133,-0.356 0.179,-0.438 0.179,-0.664 0,-0.77 -0.82,-1.184 -1.593,-1.184 -1.5,0 -2.207,1.785 -2.207,2.055 0,0.187 0.218,0.187 0.351,0.187 0.157,0 0.266,0 0.309,-0.168 0.465,-1.472 1.262,-1.597 1.461,-1.597 0.109,0 0.242,0 0.242,0.269 0,0.313 -0.156,0.645 -0.242,0.852 -0.555,1.328 -0.84,2.094 -0.84,2.758 0,1.511 1.414,1.718 2.23,1.718 0.356,0 0.84,-0.039 1.372,-0.39 -0.399,1.617 -1.461,2.484 -2.43,2.484 -0.199,0 -0.578,-0.019 -0.863,-0.184 0.441,-0.168 0.664,-0.539 0.664,-0.894 0,-0.477 -0.399,-0.598 -0.688,-0.598 -0.508,0 -1.016,0.414 -1.016,0.992 0,0.684 0.75,1.165 1.903,1.165 1.609,0 3.469,-1.02 3.91,-2.657 z"
           style="fill:#0000ff;fill-opacity:1;fill-rule:nonzero;stroke:none"
           id="path10018" />
        <path
           d="m 373.973,931.402 c 0,-1.015 -0.157,-2.613 -0.93,-4.129 -0.84,-1.617 -2.055,-2.484 -2.188,-2.484 -0.085,0 -0.152,0.059 -0.152,0.145 0,0.039 0,0.062 0.266,0.308 1.39,1.309 2.187,3.403 2.187,6.16 0,2.278 -0.508,4.602 -2.254,6.262 -0.199,0.164 -0.199,0.184 -0.199,0.227 0,0.082 0.067,0.144 0.152,0.144 0.133,0 1.415,-0.91 2.235,-2.59 0.726,-1.453 0.883,-2.925 0.883,-4.043 z"
           style="fill:#0000ff;fill-opacity:1;fill-rule:nonzero;stroke:none"
           id="path10020" />
        <path
           d="m 467.574,1141.695 -1.914,1.817 0.246,0.23 1.668,-1.359 1.625,1.359 0.246,-0.23 z"
           style="fill:#000000;fill-opacity:1;fill-rule:nonzero;stroke:none"
           id="path10022" />
        <path
           d="m 463.453,1152.574 c -0.109,0.461 -0.156,0.543 -0.777,0.543 -0.156,0 -0.313,0 -0.313,0.254 0,0.102 0.067,0.164 0.176,0.164 0.379,0 0.805,-0.039 1.18,-0.039 0.492,0 0.957,0.039 1.426,0.039 0.066,0 0.246,0 0.246,-0.269 0,-0.149 -0.133,-0.149 -0.336,-0.149 -0.711,0 -0.711,-0.082 -0.711,-0.207 0,-0.168 0.601,-2.34 0.691,-2.672 0.176,0.395 0.578,0.856 1.313,0.856 1.644,0 3.425,-1.942 3.425,-3.906 0,-1.254 -0.82,-2.129 -1.89,-2.129 -0.711,0 -1.403,0.48 -1.871,1 -0.133,-0.731 -0.754,-1 -1.266,-1 -0.668,0 -0.937,0.519 -1.047,0.75 -0.269,0.461 -0.445,1.253 -0.445,1.296 0,0.145 0.133,0.145 0.156,0.145 0.156,0 0.156,-0.02 0.242,-0.312 0.246,-0.942 0.536,-1.59 1.047,-1.59 0.246,0 0.446,0.105 0.446,0.609 0,0.313 -0.043,0.457 -0.11,0.688 z m 2.492,-5.785 c 0.09,-0.355 0.493,-0.73 0.735,-0.937 0.511,-0.399 0.914,-0.504 1.16,-0.504 0.555,0 0.91,0.461 0.91,1.254 0,0.793 -0.465,2.32 -0.734,2.82 -0.489,0.941 -1.157,1.379 -1.692,1.379 -0.933,0 -1.113,-1.106 -1.113,-1.192 0,-0.019 0,-0.043 0.047,-0.207 z"
           style="fill:#000000;fill-opacity:1;fill-rule:nonzero;stroke:none"
           id="path10024" />
        <path
           d="m 479.141,1150.195 c 0,-1.754 -1.356,-3.34 -4.227,-3.34 -2.894,0 -4.23,1.606 -4.23,3.34 0,1.754 1.378,3.258 4.23,3.258 2.871,0 4.227,-1.543 4.227,-3.258 z m -4.227,2.821 c -0.602,0 -1.539,-0.125 -2.184,-0.879 -0.488,-0.606 -0.554,-1.461 -0.554,-1.942 0,-0.73 0.133,-1.504 0.644,-2.109 0.489,-0.543 1.293,-0.813 2.094,-0.813 0.734,0 1.559,0.188 2.156,0.899 0.535,0.625 0.582,1.566 0.582,2.023 0,0.985 -0.269,2.821 -2.738,2.821 z m 2.024,-3.801 h -0.622 v 0.336 h -2.785 v -0.336 h -0.644 v 1.859 h 0.644 v -0.312 h 2.785 v 0.312 h 0.622 z"
           style="fill:#000000;fill-opacity:1;fill-rule:nonzero;stroke:none"
           id="path10026" />
        <path
           d="m 481.844,1146.73 c 0,-0.148 0,-0.355 -0.246,-0.355 -0.246,0 -0.246,0.207 -0.246,0.355 v 8.582 c 0,0.149 0,0.356 0.222,0.356 0.27,0 0.27,-0.207 0.27,-0.356 z"
           style="fill:#000000;fill-opacity:1;fill-rule:nonzero;stroke:none"
           id="path10028" />
        <path
           d="m 491.422,1147.836 c 0.312,-0.293 0.668,-0.356 1.113,-0.356 0.18,0 0.203,0 0.27,-0.062 0.09,-0.082 0.109,-0.25 0.109,-0.25 0,-0.125 -0.109,-0.207 -0.223,-0.207 -0.289,0 -0.644,0.039 -0.957,0.039 -0.265,0 -0.933,-0.039 -1.199,-0.039 -0.269,0 -0.312,0.187 -0.312,0.312 0,0.207 0.222,0.207 0.289,0.207 0.023,0 0.199,0 0.355,0.043 l -2.781,2.504 -1.449,-2.523 c 0.269,-0.024 0.511,-0.024 0.582,-0.024 0.133,-0.019 0.219,-0.168 0.219,-0.312 0,-0.082 -0.067,-0.207 -0.243,-0.207 -0.246,0 -0.535,0.019 -0.8,0.019 -0.247,0 -0.536,0.02 -0.782,0.02 -0.199,0 -0.554,0 -0.734,-0.02 -0.223,0 -0.465,-0.019 -0.688,-0.019 -0.07,0 -0.293,0 -0.293,0.312 0,0.207 0.204,0.207 0.426,0.207 0.133,0 0.242,0 0.379,0 0.133,0.024 0.156,0.024 0.223,0.149 l 1.824,3.172 -0.535,2.008 c -0.246,0.019 -0.488,0.019 -0.735,0.019 -0.246,0 -0.265,0 -0.312,0.043 -0.109,0.082 -0.109,0.227 -0.109,0.27 0,0.062 0.066,0.211 0.242,0.211 0.222,0 0.492,-0.024 0.738,-0.024 0.242,0 0.488,-0.019 0.734,-0.019 0.2,0 0.555,0.019 0.754,0.019 0.246,0 0.535,0.024 0.758,0.024 0.067,0 0.332,0 0.332,-0.317 0,-0.207 -0.199,-0.207 -0.422,-0.207 -0.222,0 -0.379,0 -0.601,-0.019 l 0.558,-2.008 z"
           style="fill:#000000;fill-opacity:1;fill-rule:nonzero;stroke:none"
           id="path10030" />
        <path
           d="m 499.047,1154.141 c 0,-0.039 0,-0.063 -0.242,-0.289 -1.762,-1.672 -2.227,-4.2 -2.227,-6.247 0,-2.32 0.535,-4.636 2.293,-6.285 0.176,-0.168 0.176,-0.191 0.176,-0.23 0,-0.106 -0.043,-0.149 -0.133,-0.149 -0.156,0 -1.426,0.922 -2.269,2.614 -0.711,1.461 -0.891,2.945 -0.891,4.05 0,1.043 0.156,2.653 0.934,4.176 0.871,1.629 2.07,2.508 2.226,2.508 0.09,0 0.133,-0.043 0.133,-0.148 z"
           style="fill:#000000;fill-opacity:1;fill-rule:nonzero;stroke:none"
           id="path10032" />
        <path
           d="m 507.641,1144.41 c 0,-2.34 -1.469,-2.82 -2.34,-2.82 -1.133,0 -2.535,0.691 -3.606,2.508 -0.734,1.25 -1.179,3.07 -1.179,4.132 0,1.946 1.093,2.821 2.359,2.821 0.957,0 2.203,-0.524 3.184,-1.879 1.203,-1.629 1.582,-3.758 1.582,-4.762 z m -4.965,1.586 c 0.199,-0.773 0.578,-1.984 1.004,-2.672 0.332,-0.543 0.91,-1.254 1.578,-1.254 0.601,0 0.867,0.586 0.867,1.379 0,0.836 -0.309,2.004 -0.465,2.547 z m 2.804,0.649 c -0.89,3.57 -2.07,3.925 -2.558,3.925 -0.203,0 -0.512,-0.043 -0.715,-0.461 -0.152,-0.351 -0.152,-0.875 -0.152,-0.894 0,-0.754 0.308,-2.008 0.465,-2.57 z"
           style="fill:#000000;fill-opacity:1;fill-rule:nonzero;stroke:none"
           id="path10034" />
        <path
           d="m 510.547,1141.422 c 0,-0.227 0,-0.481 -0.27,-0.481 -0.289,0 -0.289,0.254 -0.289,0.481 v 12.387 c 0,0.23 0,0.48 0.289,0.48 0.27,0 0.27,-0.25 0.27,-0.48 z"
           style="fill:#000000;fill-opacity:1;fill-rule:nonzero;stroke:none"
           id="path10036" />
        <path
           d="m 520.43,1145.914 c 0.066,-0.23 0.066,-0.25 0.066,-0.293 0,-0.293 -0.223,-0.586 -0.668,-0.586 -0.734,0 -0.91,0.629 -1,0.985 l -0.379,1.375 c -0.156,0.648 -0.422,1.671 -0.578,2.214 -0.09,0.293 -0.512,0.629 -0.559,0.649 -0.152,0.082 -0.511,0.312 -0.976,0.312 -0.824,0 -0.848,-0.668 -0.848,-0.961 0,-0.812 0.446,-1.859 0.848,-2.82 0.133,-0.355 0.176,-0.437 0.176,-0.668 0,-0.773 -0.821,-1.187 -1.602,-1.187 -1.512,0 -2.226,1.793 -2.226,2.066 0,0.188 0.222,0.188 0.355,0.188 0.156,0 0.27,0 0.313,-0.168 0.468,-1.481 1.269,-1.606 1.468,-1.606 0.114,0 0.246,0 0.246,0.27 0,0.312 -0.156,0.648 -0.246,0.855 -0.554,1.336 -0.843,2.109 -0.843,2.777 0,1.528 1.421,1.735 2.246,1.735 0.355,0 0.847,-0.043 1.382,-0.399 -0.402,1.633 -1.472,2.508 -2.449,2.508 -0.203,0 -0.578,-0.019 -0.867,-0.187 0.441,-0.168 0.664,-0.543 0.664,-0.899 0,-0.48 -0.398,-0.605 -0.687,-0.605 -0.512,0 -1.024,0.418 -1.024,1.004 0,0.687 0.754,1.168 1.914,1.168 1.625,0 3.492,-1.024 3.938,-2.672 z"
           style="fill:#000000;fill-opacity:1;fill-rule:nonzero;stroke:none"
           id="path10038" />
        <path
           d="m 525.238,1147.605 c 0,-1.023 -0.156,-2.632 -0.933,-4.156 -0.848,-1.629 -2.071,-2.508 -2.203,-2.508 -0.09,0 -0.157,0.063 -0.157,0.149 0,0.039 0,0.062 0.266,0.312 1.402,1.317 2.203,3.426 2.203,6.203 0,2.297 -0.512,4.637 -2.269,6.309 -0.2,0.164 -0.2,0.188 -0.2,0.227 0,0.086 0.067,0.148 0.157,0.148 0.132,0 1.421,-0.918 2.246,-2.613 0.734,-1.461 0.89,-2.942 0.89,-4.071 z"
           style="fill:#000000;fill-opacity:1;fill-rule:nonzero;stroke:none"
           id="path10040" />
        <g
           id="g10042"
           transform="scale(1,0.960728)">
          <path
             d="m 86.992,1030.452 c -6.015,-4.932 -6.586,-13.462 -1.273,-19.053 5.308,-5.591 14.492,-6.123 20.508,-1.187 6.019,4.932 6.593,13.462 1.285,19.053 -5.309,5.59 -14.492,6.127 -20.512,1.195"
             style="fill:none;stroke:#000000;stroke-width:0.900163;stroke-linecap:round;stroke-linejoin:miter;stroke-miterlimit:30;stroke-dasharray:1.80033, 1.80033;stroke-dashoffset:0;stroke-opacity:0.613209"
             id="path10044" />
        </g>
        <g
           id="g10046"
           transform="scale(1,0.960728)">
          <path
             d="m 79.996,1037.823 c -10.398,-8.526 -11.383,-23.265 -2.207,-32.925 9.18,-9.657 25.047,-10.576 35.445,-2.054 10.399,8.527 11.391,23.266 2.215,32.926 -9.176,9.661 -25.043,10.588 -35.441,2.066"
             style="fill:none;stroke:#000000;stroke-width:0.900163;stroke-linecap:round;stroke-linejoin:miter;stroke-miterlimit:30;stroke-dasharray:1.80033, 1.80033;stroke-dashoffset:0;stroke-opacity:0.613209"
             id="path10048" />
        </g>
        <g
           id="g10050"
           transform="scale(1,0.960728)">
          <path
             d="m 72.695,1045.532 c -14.968,-12.279 -16.39,-33.503 -3.175,-47.412 13.218,-13.906 36.066,-15.231 51.039,-2.956 14.972,12.275 16.402,33.499 3.191,47.413 -13.211,13.913 -36.059,15.243 -51.035,2.972"
             style="fill:none;stroke:#000000;stroke-width:0.900163;stroke-linecap:round;stroke-linejoin:miter;stroke-miterlimit:30;stroke-dasharray:1.80033, 1.80033;stroke-dashoffset:0;stroke-opacity:0.613209"
             id="path10052" />
        </g>
        <path
           d="m 52.57,931.844 c 0.278,0.711 0.598,1.746 1.242,3.429 0.942,2.352 1.356,3.192 2.227,4.508 0.207,0.278 0.231,0.301 0.367,0.301 0.207,0 0.508,-0.172 0.668,-0.281 0.207,-0.172 0.231,-0.196 0.391,-0.863 0.875,-3.622 1.976,-7.395 2.273,-8.02 0.024,-0.023 0.324,-0.539 2.117,-0.582 0.297,0 0.575,-0.734 0.575,-1.035 0,-0.215 -0.094,-0.215 -0.301,-0.215 -1.469,0 -2.113,0.559 -2.297,0.754 -0.414,0.496 -0.758,1.488 -1.426,3.793 -0.527,1.746 -0.988,3.539 -1.445,5.328 -0.805,-1.145 -1.266,-2.242 -1.977,-4.012 -0.757,-1.961 -1.242,-3.387 -1.632,-4.613 -0.09,-0.281 -0.09,-0.301 -0.231,-0.301 -0.023,0 -0.32,0 -0.758,0.344 -0.136,0.109 -0.16,0.238 -0.16,0.387 -0.414,3.668 -1.793,7.289 -2.183,7.937 -0.137,0.215 -0.297,0.449 -0.598,0.449 -0.137,0 -0.711,-0.062 -1.102,-0.386 -0.07,-0.063 -0.093,-0.063 -0.117,-0.063 -0.23,0 -0.551,0.688 -0.551,1.012 0,0.43 0.899,0.711 1.309,0.711 0.945,0 1.703,-1.942 1.934,-2.567 0.941,-2.5 1.398,-4.547 1.675,-6.015 z"
           style="fill:#000000;fill-opacity:1;fill-rule:nonzero;stroke:none"
           id="path10054" />
        <path
           d="m 67.121,943.035 c 0,-0.043 0,-0.066 -0.254,-0.301 -1.816,-1.726 -2.297,-4.336 -2.297,-6.449 0,-2.39 0.551,-4.785 2.368,-6.488 0.183,-0.172 0.183,-0.195 0.183,-0.238 0,-0.106 -0.047,-0.149 -0.141,-0.149 -0.16,0 -1.468,0.945 -2.343,2.692 -0.735,1.511 -0.918,3.043 -0.918,4.183 0,1.078 0.16,2.738 0.965,4.313 0.898,1.683 2.136,2.59 2.296,2.59 0.094,0 0.141,-0.043 0.141,-0.153 z"
           style="fill:#000000;fill-opacity:1;fill-rule:nonzero;stroke:none"
           id="path10056" />
        <path
           d="m 75.828,934.215 c -0.527,0.152 -0.781,0.605 -0.781,0.949 0,0.305 0.23,0.648 0.711,0.648 0.531,0 1.058,-0.41 1.058,-1.078 0,-0.734 -0.757,-1.207 -1.656,-1.207 -0.848,0 -1.379,0.582 -1.586,0.84 -0.367,-0.582 -1.172,-0.84 -2.019,-0.84 -1.84,0 -2.828,1.68 -2.828,2.133 0,0.195 0.207,0.195 0.343,0.195 0.184,0 0.278,0 0.348,-0.171 0.414,-1.25 1.469,-1.661 2.066,-1.661 0.551,0 0.828,0.235 0.828,0.668 0,0.282 -0.207,1.036 -0.343,1.532 l -0.508,1.875 c -0.207,0.84 -0.734,1.25 -1.238,1.25 -0.071,0 -0.414,0 -0.692,-0.196 0.528,-0.148 0.781,-0.625 0.781,-0.945 0,-0.305 -0.253,-0.648 -0.734,-0.648 -0.508,0 -1.058,0.41 -1.058,1.078 0,0.734 0.781,1.207 1.679,1.207 0.824,0 1.379,-0.582 1.563,-0.84 0.367,0.582 1.195,0.84 2.019,0.84 1.864,0 2.852,-1.68 2.852,-2.133 0,-0.195 -0.231,-0.195 -0.344,-0.195 -0.184,0 -0.277,0 -0.348,0.172 -0.414,1.25 -1.468,1.66 -2.089,1.66 -0.551,0 -0.805,-0.239 -0.805,-0.692 0,-0.277 0.183,-1.011 0.32,-1.527 0.094,-0.348 0.438,-1.641 0.508,-1.856 0.23,-0.839 0.734,-1.25 1.242,-1.25 0.09,0 0.41,0 0.711,0.192 z"
           style="fill:#000000;fill-opacity:1;fill-rule:nonzero;stroke:none"
           id="path10058" />
        <path
           d="m 79.945,929.902 c 0,-0.234 0,-0.492 -0.273,-0.492 -0.301,0 -0.301,0.258 -0.301,0.492 v 12.789 c 0,0.235 0,0.497 0.301,0.497 0.273,0 0.273,-0.262 0.273,-0.497 z"
           style="fill:#000000;fill-opacity:1;fill-rule:nonzero;stroke:none"
           id="path10060" />
        <path
           d="m 90.152,934.539 c 0.067,-0.238 0.067,-0.258 0.067,-0.301 0,-0.3 -0.227,-0.605 -0.688,-0.605 -0.758,0 -0.941,0.648 -1.035,1.015 l -0.391,1.422 c -0.16,0.668 -0.437,1.727 -0.597,2.285 -0.09,0.301 -0.528,0.649 -0.574,0.668 -0.161,0.086 -0.528,0.325 -1.012,0.325 -0.848,0 -0.871,-0.692 -0.871,-0.993 0,-0.839 0.457,-1.917 0.871,-2.91 0.14,-0.367 0.183,-0.453 0.183,-0.691 0,-0.797 -0.847,-1.227 -1.652,-1.227 -1.562,0 -2.297,1.852 -2.297,2.133 0,0.195 0.227,0.195 0.367,0.195 0.161,0 0.274,0 0.321,-0.171 0.484,-1.532 1.308,-1.661 1.515,-1.661 0.118,0 0.254,0 0.254,0.278 0,0.324 -0.16,0.672 -0.254,0.887 -0.574,1.378 -0.871,2.175 -0.871,2.867 0,1.574 1.469,1.789 2.321,1.789 0.367,0 0.871,-0.043 1.425,-0.41 -0.414,1.683 -1.519,2.589 -2.527,2.589 -0.207,0 -0.598,-0.023 -0.898,-0.195 0.461,-0.172 0.691,-0.562 0.691,-0.926 0,-0.496 -0.414,-0.629 -0.715,-0.629 -0.527,0 -1.055,0.434 -1.055,1.036 0,0.714 0.782,1.211 1.977,1.211 1.676,0 3.605,-1.059 4.066,-2.762 z"
           style="fill:#000000;fill-opacity:1;fill-rule:nonzero;stroke:none"
           id="path10062" />
        <path
           d="m 107.098,976.164 c 0.066,-0.238 0.066,-0.258 0.066,-0.301 0,-0.304 -0.23,-0.605 -0.687,-0.605 -0.758,0 -0.942,0.648 -1.036,1.012 l -0.39,1.425 c -0.16,0.668 -0.438,1.723 -0.598,2.285 -0.09,0.301 -0.527,0.645 -0.574,0.668 -0.16,0.086 -0.527,0.325 -1.012,0.325 -0.847,0 -0.871,-0.692 -0.871,-0.993 0,-0.839 0.457,-1.918 0.871,-2.91 0.141,-0.367 0.184,-0.453 0.184,-0.691 0,-0.797 -0.848,-1.231 -1.653,-1.231 -1.562,0 -2.3,1.856 -2.3,2.137 0,0.195 0.23,0.195 0.371,0.195 0.16,0 0.273,0 0.32,-0.175 0.481,-1.528 1.309,-1.66 1.516,-1.66 0.117,0 0.254,0 0.254,0.281 0,0.324 -0.161,0.668 -0.254,0.883 -0.575,1.382 -0.871,2.179 -0.871,2.871 0,1.574 1.468,1.789 2.32,1.789 0.367,0 0.871,-0.043 1.426,-0.41 -0.414,1.679 -1.52,2.586 -2.532,2.586 -0.207,0 -0.597,-0.02 -0.894,-0.192 0.461,-0.176 0.687,-0.562 0.687,-0.93 0,-0.496 -0.41,-0.625 -0.711,-0.625 -0.527,0 -1.054,0.434 -1.054,1.036 0,0.711 0.781,1.207 1.972,1.207 1.68,0 3.61,-1.055 4.071,-2.758 z"
           style="fill:#000000;fill-opacity:1;fill-rule:nonzero;stroke:none"
           id="path10064" />
        <path
           d="m 93.875,939.715 c 0,-0.906 -0.367,-1.445 -0.941,-1.445 -0.485,0 -0.782,0.343 -0.782,0.734 0,0.367 0.297,0.73 0.782,0.73 0.16,0 0.367,-0.062 0.504,-0.172 0.046,-0.042 0.07,-0.042 0.07,-0.042 0.019,0 0.019,0 0.019,0.195 0,1.035 -0.504,1.855 -0.984,2.308 -0.164,0.149 -0.164,0.172 -0.164,0.215 0,0.106 0.07,0.149 0.141,0.149 0.16,0 1.355,-1.055 1.355,-2.672 z"
           style="fill:#000000;fill-opacity:1;fill-rule:nonzero;stroke:none"
           id="path10066" />
        <path
           d="m 104.988,934.605 c 0.203,0 0.735,0 0.735,-0.476 0,-0.32 -0.325,-0.32 -0.575,-0.32 h -3.355 c -2.207,0 -3.84,2.261 -3.84,3.902 0,1.207 0.875,2.176 2.207,2.176 1.723,0 3.676,-1.66 3.676,-3.774 0,-0.238 0,-0.906 -0.457,-1.508 z m -4.804,4.981 c -0.735,0 -1.309,-0.496 -1.309,-1.488 0,-0.41 0.16,-1.532 0.687,-2.352 0.622,-0.949 1.497,-1.141 2,-1.141 1.219,0 1.333,0.907 1.333,1.336 0,0.649 -0.297,1.77 -0.782,2.481 -0.574,0.797 -1.379,1.164 -1.929,1.164 z"
           style="fill:#000000;fill-opacity:1;fill-rule:nonzero;stroke:none"
           id="path10068" />
        <path
           d="m 112.754,931.242 c 0.07,-0.238 0.09,-0.262 0.367,-0.281 0.231,-0.023 0.414,-0.023 0.645,-0.023 h 0.296 c 0.325,0 0.325,0 0.391,-0.063 0.094,-0.043 0.141,-0.238 0.141,-0.324 0,-0.172 -0.141,-0.258 -0.324,-0.258 -0.368,0 -0.735,0.043 -1.102,0.043 -0.391,0 -0.781,0 -1.172,0 -0.414,0 -0.828,0 -1.219,0 -0.39,0 -0.781,-0.043 -1.148,-0.043 -0.16,0 -0.438,0 -0.438,0.41 0,0.235 0.254,0.235 0.508,0.235 h 0.297 c 0.137,0 0.484,0.023 0.781,0.042 l -2.089,7.829 c -0.071,0.214 -0.071,0.238 -0.348,0.257 -0.184,0.024 -0.434,0.024 -0.641,0.024 h -0.301 c -0.296,0 -0.55,0 -0.55,0.41 0,0.172 0.16,0.234 0.32,0.234 0.371,0 0.762,-0.019 1.129,-0.019 0.391,0 0.781,-0.024 1.172,-0.024 0.414,0 0.828,0.024 1.219,0.024 0.39,0 0.781,0.019 1.148,0.019 0.137,0 0.434,0 0.434,-0.406 0,-0.238 -0.25,-0.238 -0.504,-0.238 h -0.297 c -0.117,0 -0.598,-0.024 -0.781,-0.024 z"
           style="fill:#000000;fill-opacity:1;fill-rule:nonzero;stroke:none"
           id="path10070" />
        <path
           d="m 119.152,936.285 c 0,-1.055 -0.16,-2.715 -0.964,-4.289 -0.872,-1.684 -2.137,-2.586 -2.274,-2.586 -0.094,0 -0.16,0.063 -0.16,0.149 0,0.043 0,0.066 0.273,0.324 1.45,1.359 2.278,3.535 2.278,6.402 0,2.371 -0.532,4.789 -2.344,6.512 -0.207,0.172 -0.207,0.195 -0.207,0.238 0,0.086 0.066,0.153 0.16,0.153 0.137,0 1.469,-0.95 2.32,-2.696 0.758,-1.512 0.918,-3.043 0.918,-4.207 z"
           style="fill:#000000;fill-opacity:1;fill-rule:nonzero;stroke:none"
           id="path10072" />
        <path
           d="m 510.18,1047.043 c 0,-2.02 -1.27,-2.434 -2.02,-2.434 -0.98,0 -2.191,0.594 -3.113,2.164 -0.637,1.082 -1.02,2.653 -1.02,3.571 0,1.679 0.942,2.433 2.035,2.433 0.829,0 1.907,-0.449 2.75,-1.621 1.04,-1.406 1.368,-3.246 1.368,-4.113 z m -4.289,1.371 c 0.171,-0.668 0.5,-1.715 0.867,-2.309 0.285,-0.468 0.785,-1.082 1.363,-1.082 0.52,0 0.75,0.504 0.75,1.192 0,0.719 -0.269,1.73 -0.402,2.199 z m 2.421,0.559 c -0.769,3.086 -1.785,3.39 -2.21,3.39 -0.172,0 -0.442,-0.035 -0.614,-0.394 -0.136,-0.309 -0.136,-0.758 -0.136,-0.778 0,-0.648 0.269,-1.73 0.406,-2.218 z"
           style="fill:#000000;fill-opacity:1;fill-rule:nonzero;stroke:none"
           id="path10092" />
        <path
           d="m 515.246,1045.238 c 0.152,-0.074 0.152,-0.109 0.152,-0.144 0,-0.074 -0.078,-0.11 -0.113,-0.11 -0.039,0 -1.461,0.254 -1.691,0.305 l -0.215,-1.477 c -0.016,-0.124 -0.016,-0.218 -0.133,-0.218 -0.078,0 -0.117,0.074 -0.133,0.199 l -0.195,1.496 -1.574,-0.285 c -0.098,-0.02 -0.117,-0.02 -0.117,-0.02 -0.055,0 -0.133,0.036 -0.133,0.11 0,0.035 0.019,0.054 0.058,0.09 0.02,0.015 1.383,0.613 1.575,0.683 l -0.789,1.336 c -0.055,0.109 -0.055,0.125 -0.055,0.125 0,0.074 0.055,0.129 0.113,0.129 0.078,0 0.25,-0.199 0.578,-0.562 0.231,-0.215 0.461,-0.43 0.672,-0.649 0.422,0.399 1.039,1.027 1.133,1.117 0.078,0.075 0.078,0.094 0.137,0.094 0.058,0 0.113,-0.055 0.113,-0.129 0,-0.016 -0.113,-0.199 -0.172,-0.305 l -0.672,-1.136 z"
           style="fill:#000000;fill-opacity:1;fill-rule:nonzero;stroke:none"
           id="path10094" />
        <path
           d="m 310.26,912.422 h 345.89 c 8.35,0 15.07,6.719 15.07,15.066 v 220.18 c 0,8.348 -6.72,15.07 -15.07,15.07 H 310.26 c -8.347,0 -15.066,-6.722 -15.066,-15.07 v -220.18 c 0,-8.347 6.719,-15.066 15.066,-15.066 z"
           style="fill:none;stroke:#000000;stroke-width:1.31951;stroke-linecap:round;stroke-linejoin:miter;stroke-miterlimit:30;stroke-dasharray:none;stroke-opacity:1"
           id="path10174"
           transform="scale(0.88595102,1)" />
      </g>
    </g>
  </g>
</svg>
